<?xml version="1.0" encoding="UTF-8" standalone="no"?>
<!-- Created with Inkscape (http://www.inkscape.org/) -->

<svg
   width="27.730204mm"
   height="142.51027mm"
   viewBox="0 0 27.730204 142.51027"
   version="1.1"
   id="svg1520"
   xmlns="http://www.w3.org/2000/svg"
   xmlns:svg="http://www.w3.org/2000/svg">
  <defs
     id="defs1517" />
  <path
     id="path6333"
     style="fill:#d40000;fill-opacity:1;stroke:#000000;stroke-width:1.065;stroke-miterlimit:4;stroke-dasharray:none;stroke-opacity:0.973393"
     d="m 18.983929,0.53266294 c -0.370196,-0.001225 -0.758498,0.00447 -1.146184,0.0175699 -2.197989,0.0742701 -2.929924,0.19519053 -3.321244,0.54932056 -0.61258,0.5543799 -5.8013893,10.9112976 -6.7541094,13.4813476 -2.4827399,6.69747 -3.5334694,10.264474 -4.4415892,15.081251 -1.68917,8.95958 -2.0733204,15.788515 -1.3255005,23.547916 0.11755,1.219668 0.080296,1.517848 -0.1607137,1.287259 -0.17252,-0.165071 -0.3798538,-1.031373 -0.4609538,-1.925463 -0.08107,-0.894091 -0.2497141,-1.6891 -0.37465411,-1.7663 -0.12492998,-0.07722 -0.22737627,2.829239 -0.2273763,6.458518 0,7.444312 -0.0393933,7.245192 2.50475661,12.581663 0.6597901,1.383929 1.19941,2.601095 1.19941,2.704743 0,0.46297 -1.1953769,-0.967486 -2.330607,-2.788976 l -1.24126794,-1.991611 -0.0682129,15.18667 c -0.05793,12.8748 -0.0106148,15.250112 0.31057534,15.606284 0.3277,0.363598 0.3280684,0.489302 0.00207,0.933791 -0.31838005,0.434091 -0.3767212,3.762044 -0.3767212,21.497394 v 20.98374 H 12.007094 c 10.431322,0 11.252835,-0.0332 11.478886,-0.46303 0.483539,-0.91958 1.885591,-6.34975 2.408121,-9.32656 1.82615,-10.40333 1.738975,-19.28198 -0.283186,-28.83958 C 23.773794,94.665614 20.14043,86.09096 14.745428,77.70728 11.280048,72.322149 10.68978,71.207582 8.6155697,66.12969 7.4006596,63.155456 6.344452,59.49302 5.2421322,54.434798 4.5825122,51.408028 4.7568374,42.180645 5.5527075,37.996526 6.8833275,31.001115 8.785683,24.094103 10.434063,20.274093 13.366943,13.477323 17.045801,7.0882664 20.531121,2.7392466 L 21.964108,0.95175878 21.310402,0.70319515 c -0.269475,-0.10245 -1.215886,-0.16685728 -2.326473,-0.17053221 z m -8.164876,0.0253214 c -0.07224,-0.00266 -0.141682,-0.001027 -0.205673,0.004651 -0.08532,0.007569 -0.16093,0.0228671 -0.221175,0.045992 C 9.2679853,1.0400373 4.4525764,12.795113 2.2309464,20.531442 c -1.57768992,5.494004 -1.8254217,7.11766 -1.5968017,10.471713 0.20343,2.98468 0.5000874,3.391839 0.7446574,1.02216 0.29501,-2.8584 1.9237036,-9.712678 3.3532836,-14.112318 0.58665,-1.80546 1.0666015,-3.433173 1.0666015,-3.616833 0,-0.18365 0.168801,-0.670641 0.375171,-1.082622 0.20638,-0.41197 1.1117902,-2.356653 2.0122803,-4.3211827 0.90049,-1.9645299 2.1557945,-4.5587128 2.7894935,-5.7650227 L 12.128017,0.93418881 11.478961,0.68717545 C 11.278227,0.61084422 11.035762,0.56596472 10.819053,0.55798434 Z M 7.5629207,0.70474542 c -0.036026,-9.6044e-4 -0.075233,-1.9627e-4 -0.1178224,0.002066 -0.097347,0.005173 -0.2116016,0.017341 -0.3420978,0.0299723 C 6.2529704,0.81906415 6.179017,0.91984873 5.1982071,3.3361087 1.9436273,11.353889 0.08898382,18.304501 0.62949382,20.458062 0.87771381,21.447031 1.147908,20.936144 1.7978979,18.247344 2.4430779,15.578494 5.4546384,6.7815759 6.7216285,3.865276 7.8979149,1.157728 8.1033109,0.7191699 7.5629207,0.70474542 Z M 2.2619523,55.542224 c 0.00795,-0.0013 0.015602,-2.64e-4 0.023255,0.0021 0.061216,0.01963 0.1154613,0.15779 0.2010213,0.427366 0.22627,0.712938 -0.2801849,1.408834 -0.5374349,0.738454 -0.08972,-0.23378 -0.048386,-0.630261 0.091984,-0.881083 0.1005156,-0.179615 0.1655141,-0.278183 0.2211751,-0.286803 z m -0.025321,8.729184 c 0.08796,-0.0043 0.2701058,0.231891 0.5395019,0.754475 0.96082,1.863839 2.9732403,4.727697 5.8549396,8.332309 5.4877802,6.864458 8.4414622,11.859254 10.6153722,17.951875 1.06616,2.988001 2.146364,6.983037 2.647384,9.789583 0.155869,0.87313 0.415479,2.3376 0.576709,3.25407 0.38873,2.20956 0.734937,7.70497 0.639237,10.14098 -0.07065,1.79783 -0.138187,2.00267 -0.866097,2.61224 -0.43443,0.3638 -1.681597,1.10794 -2.771407,1.65365 -1.0898,0.5457 -6.414647,0.99219 -6.646787,0.99219 -0.52529,0 -0.530954,-0.50257 -0.03772,-3.57188 1.05503,-6.56525 0.997046,-14.66605 -0.146244,-20.372916 C 11.041664,87.822163 12.7065,81.918158 7.6988297,74.773609 5.0802498,71.03764 3.3355691,68.052589 2.6154191,66.077499 2.2052255,64.952512 2.0900307,64.278549 2.2366313,64.271408 Z m 4.9607729,19.083073 c 0.4248669,0.05746 2.4970811,5.762048 3.2070388,8.881628 1.165322,5.1205 1.62874,11.610441 1.218531,17.065621 -0.424011,5.63873 -1.152827,10.51053 -1.6727662,11.17865 -0.1415601,0.1819 -0.4967193,0.33073 -0.7890992,0.33073 -0.5947299,0 -0.596006,0.02 0.197404,-4.23333 C 10.510312,110.4032 10.960236,100.31376 10.277836,95.961979 9.6391558,91.889058 8.5259701,87.172146 7.90072,85.889726 7.5659501,85.203106 7.0580004,83.470111 7.1612302,83.366882 c 0.010176,-0.01019 0.022468,-0.01426 0.036174,-0.01241 z" />
</svg>
