<?xml version="1.0" encoding="UTF-8" standalone="no"?>
<!-- Created with Inkscape (http://www.inkscape.org/) -->

<svg
   width="112.06712mm"
   height="15.507579mm"
   viewBox="0 0 112.06712 15.507579"
   version="1.1"
   id="svg881"
   xmlns="http://www.w3.org/2000/svg"
   xmlns:svg="http://www.w3.org/2000/svg">
  <defs
     id="defs878" />
  <g
     id="layer1"
     transform="translate(-80.358517,-193.52571)">
    <path
       style="display:inline;fill:#000000;fill-opacity:1;stroke:#ffffff;stroke-width:0;stroke-linecap:butt;stroke-linejoin:miter;stroke-miterlimit:4;stroke-dasharray:none;stroke-opacity:1"
       d="m 81.113313,194.89577 c 33.851557,-0.49548 95.068577,-1.41673 98.893297,-1.36822 4.96332,0.063 6.91815,0.92806 7.82073,1.40756 1.88496,1.0014 2.24157,1.16537 3.28068,2.73072 0.84692,1.55593 1.00824,2.96879 1.17003,4.25316 0.16914,1.3427 0.22185,2.5463 0.002,3.32012 -0.44017,1.54763 -1.89848,2.84023 -2.9202,3.40437 -1.02173,0.56413 -2.64334,0.53337 -3.58371,-0.20652 -1.24618,-0.98048 -1.59615,-2.84656 -1.3834,-4.55136 0.0749,-0.60038 -0.007,-1.21655 -0.2736,-1.78972 -0.26697,-0.57316 -0.36779,-0.94013 -1.38614,-1.5317 -0.70331,-0.41709 -1.04697,-0.44608 -1.4053,-0.57635 -0.35833,-0.13027 -0.78957,-0.23437 -1.59231,-0.42814 -0.52344,-0.13419 -1.32693,-0.19911 -3.71017,-0.28785 -2.38324,-0.0887 -6.66868,-0.10223 -14.80089,0.0645 -16.26443,0.33341 -79.779689,0.46692 -79.779689,0.46692 0,0 -2.205306,-2.27005 -0.331088,-4.90746 z"
       id="path20018" />
  </g>
</svg>
