<svg xmlns="http://www.w3.org/2000/svg">
    

     <symbol id="separador" viewBox="0 0 161.52829 12.740304" preserveAspectRatio="none">
        <title>Icon check preserveAspectRatio para modificarlo</title>
     <g
     id="layer1"
     transform="translate(-27.059833,-97.373103)">
    <path
       style="color:#000000;fill:#000000;stroke-width:0;stroke-miterlimit:4;stroke-dasharray:none"
       d="M 27.059833,109.39044 C 187.8633,108.24593 186.71879,97.373103 186.71879,97.373103 l 1.71677,12.589597 z"
       id="path1337" />
  </g>
     </symbol>

    <symbol id="separador2" viewBox="0 0 1200 120" preserveAspectRatio="none">
        <path d="M0,0V46.29c47.79,22.2,103.59,32.17,158,28,70.36-5.37,136.33-33.31,206.8-37.5C438.64,32.43,512.34,53.67,583,72.05c69.27,18,138.3,24.88,209.4,13.08,36.15-6,69.85-17.84,104.45-29.34C989.49,25,1113-14.29,1200,52.47V0Z" opacity=".25" class="shape-fill"></path>
        <path d="M0,0V15.81C13,36.92,27.64,56.86,47.69,72.05,99.41,111.27,165,111,224.58,91.58c31.15-10.15,60.09-26.07,89.67-39.8,40.92-19,84.73-46,130.83-49.67,36.26-2.85,70.9,9.42,98.6,31.56,31.77,25.39,62.32,62,103.63,73,40.44,10.79,81.35-6.69,119.13-24.28s75.16-39,116.92-43.05c59.73-5.85,113.28,22.88,168.9,38.84,30.2,8.66,59,6.17,87.09-7.5,22.43-10.89,48-26.93,60.65-49.24V0Z" opacity=".5" class="shape-fill"></path>
        <path d="M0,0V5.63C149.93,59,314.09,71.32,475.83,42.57c43-7.64,84.23-20.12,127.61-26.46,59-8.63,112.48,12.24,165.56,35.4C827.93,77.22,886,95.24,951.2,90c86.53-7,172.46-45.71,248.8-84.81V0Z" class="shape-fill"></path>
    
  </symbol>
    <symbol id="longi" viewBox="0 0 10.458 10.628">
        <title>Icon longi</title>
    <g transform="matrix(.11212 0 0 .11212 -1.1045 -4.6324)" stroke="#fff" stroke-opacity=".058824">
<path transform="scale(.26458)" d="m177.92 217.64-19.969 9.4668 19.619 24.91c21.172 30.309 61.668 80.084 86.047 111.57 28.461 36.756 38.52 50.98 59.453 75.082 2.7014 3.1104 5.4131 6.2476 8.5195 8.9535 3.283 2.8598 6.8626 5.401 10.608 7.621 3.3974 2.0137 6.9178 3.9322 10.683 5.1228 2.818 0.89093 4.0278 0.93232 8.7457 1.459 8.7914 0.98137 19.981-6.1168 23.617-12.104 1.8788-3.093 4.1494-6.8101 4.0117-12.554-0.0905-3.7775-1.2504-6.5325-3.226-8.4712s-4.7667-3.0612-8.1197-3.5738c-4.1057-0.62767-6.852 1.0936-11.11 5.7032-4.419 4.7839-7.4465 4.8553-12.464 3.121s-11.701-8.1656-19.307-15.67c-7.6055-7.5048-15.643-17.881-41.9-51.799-11.65-15.049-31.042-40.045-51.188-65.529l0.16407 0.0781z" stroke-width="1px"/>
<g>
<path transform="scale(.26458)" d="m359.38 232.55c-36.435 51.601-82.688 98.926-116.86 150.54-14.626 19.269-42.117 55.786-59.096 76.717s-24.085 26.701-29.686 28.42c-5.2946 1.6253-7.2783-0.11314-10.859-2.2305-3.2421-2.3784-3.9886-4.5395-7.7578-6.2168-3.7692-1.6773-7.2192-1.8046-10.672 0.0977-2.3651 1.3031-4.968 4.9498-5.541 7.8242-0.28653 1.4372-0.79074 5.0955 0.21484 8.4902 1.0056 3.3947 3.522 6.5258 5.2949 8.332 1.7729 1.8063 7.019 5.9992 12.984 7.6211 9.4394 2.5665 12.616 1.8188 15.914 1.0391 3.0799-0.94103 4.5144-1.4813 6.6211-2.2285 2.1067-0.74717 4.2298-1.6072 6.7148-2.9043 4.9884-2.6037 7.7468-6.8716 11.465-10.568 7.6168-8.8496 13.853-14.338 29.457-34.072 15.604-19.734 40.11-52.228 64.615-84.725v-2e-3l105.67-135.28s2.3468-2.6875-6.9038-8.4692c-9.1057-5.6912-11.569-2.3843-11.569-2.3843z" stroke="#fff" stroke-opacity=".058824" stroke-width="1px"/>
</g>
<path d="m10.039 71.426c20.679-9.8188 58.067-27.591 60.433-28.636 3.07-1.3562 4.5154-1.3736 5.2052-1.3324 1.4407 0.08607 1.7061 0.08668 2.785 0.75729 0.95814 0.71885 1.4544 1.5424 1.9149 2.2868 0.48138 0.7782 0.85208 1.5036 0.93421 2.0413 0.16427 1.0755-0.36928 2.2803-0.83907 2.9144-0.46979 0.63409-1.4757 1.0709-2.262 0.8802-1.0419-0.25274-1.7816-1.302-2.1299-2.4102-0.12266-0.39028-0.34599-0.74629-0.67126-1.0237-0.32527-0.27745-0.49041-0.4748-1.2829-0.55239-0.54974-0.05881-0.76924 0.01992-1.0262 0.04052s-0.55144 0.07778-1.0996 0.18422c-0.35962 0.06458-0.872 0.25048-2.3626 0.86573-1.4906 0.61525-4.1298 1.8114-9.0842 4.1995-9.9086 4.7762-48.932 22.709-48.932 22.709s-1.9942-0.77623-1.5829-2.9249z" stroke-width=".26458px"/>
<path d="m73.369 69.272c-4.1357 0-7.4979 3.0028-7.4979 6.7243 0 3.6745 3.3621 6.7176 7.4979 6.7243 4.1357 0 7.4982-3.0498 7.4982-6.7243 0-3.7282-3.3625-6.7243-7.4982-6.7243z" stroke-miterlimit="10" stroke-width=".033924"/>
</g>
    </symbol>


   <symbol id="longiredondo" viewBox="0 0 102 101">
        <title>Icon stik</title>
   <circle cx="50.931" cy="50.358" r="50" fill="#00000f" stroke-width="0" style="paint-order:markers stroke fill"/>
<path d="m50.931 0.35833v100a50 50 0 0 1-50-50 50 50 0 0 1 50-50z" fill="#dc0000" stroke-width="0" style="paint-order:markers stroke fill"/>
<g transform="matrix(.81171 0 0 .81171 -.52491 -25.178)" fill="#fff" stroke="#fff" stroke-opacity=".058824">
<path transform="scale(.26458)" d="m177.92 217.64-19.969 9.4668 19.619 24.91c21.172 30.309 61.668 80.084 86.047 111.57 28.461 36.756 38.52 50.98 59.453 75.082 2.7014 3.1104 5.4131 6.2476 8.5195 8.9535 3.283 2.8598 6.8626 5.401 10.608 7.621 3.3974 2.0137 6.9178 3.9322 10.683 5.1228 2.818 0.89093 4.0278 0.93232 8.7457 1.459 8.7914 0.98137 19.981-6.1168 23.617-12.104 1.8788-3.093 4.1494-6.8101 4.0117-12.554-0.0905-3.7775-1.2504-6.5325-3.226-8.4712s-4.7667-3.0612-8.1197-3.5738c-4.1057-0.62767-6.852 1.0936-11.11 5.7032-4.419 4.7839-7.4465 4.8553-12.464 3.121s-11.701-8.1656-19.307-15.67c-7.6055-7.5048-15.643-17.881-41.9-51.799-11.65-15.049-31.042-40.045-51.188-65.529l0.16407 0.0781z" stroke-width="1px"/>
<g>
<path transform="scale(.26458)" d="m359.38 232.55c-36.435 51.601-82.688 98.926-116.86 150.54-14.626 19.269-42.117 55.786-59.096 76.717s-24.085 26.701-29.686 28.42c-5.2946 1.6253-7.2783-0.11314-10.859-2.2305-3.2421-2.3784-3.9886-4.5395-7.7578-6.2168-3.7692-1.6773-7.2192-1.8046-10.672 0.0977-2.3651 1.3031-4.968 4.9498-5.541 7.8242-0.28653 1.4372-0.79074 5.0955 0.21484 8.4902 1.0056 3.3947 3.522 6.5258 5.2949 8.332 1.7729 1.8063 7.019 5.9992 12.984 7.6211 9.4394 2.5665 12.616 1.8188 15.914 1.0391 3.0799-0.94103 4.5144-1.4813 6.6211-2.2285 2.1067-0.74717 4.2298-1.6072 6.7148-2.9043 4.9884-2.6037 7.7468-6.8716 11.465-10.568 7.6168-8.8496 13.853-14.338 29.457-34.072 15.604-19.734 40.11-52.228 64.615-84.725v-2e-3l105.67-135.28s2.3468-2.6875-6.9038-8.4692c-9.1057-5.6912-11.569-2.3843-11.569-2.3843z" fill="#fff" stroke="#fff" stroke-opacity=".058824" stroke-width="1px"/>
</g>
<path d="m10.039 71.426c20.679-9.8188 58.067-27.591 60.433-28.636 3.07-1.3562 4.5154-1.3736 5.2052-1.3324 1.4407 0.08607 1.7061 0.08668 2.785 0.75729 0.95814 0.71885 1.4544 1.5424 1.9149 2.2868 0.48138 0.7782 0.85208 1.5036 0.93421 2.0413 0.16427 1.0755-0.36928 2.2803-0.83907 2.9144-0.46979 0.63409-1.4757 1.0709-2.262 0.8802-1.0419-0.25274-1.7816-1.302-2.1299-2.4102-0.12266-0.39028-0.34599-0.74629-0.67126-1.0237-0.32527-0.27745-0.49041-0.4748-1.2829-0.55239-0.54974-0.05881-0.76924 0.01992-1.0262 0.04052s-0.55144 0.07778-1.0996 0.18422c-0.35962 0.06458-0.872 0.25048-2.3626 0.86573-1.4906 0.61525-4.1298 1.8114-9.0842 4.1995-9.9086 4.7762-48.932 22.709-48.932 22.709s-1.9942-0.77623-1.5829-2.9249z" stroke-width=".26458px"/>
<path d="m73.369 69.272c-4.1357 0-7.4979 3.0028-7.4979 6.7243 0 3.6745 3.3621 6.7176 7.4979 6.7243 4.1357 0 7.4982-3.0498 7.4982-6.7243 0-3.7282-3.3625-6.7243-7.4982-6.7243z" stroke-miterlimit="10" stroke-width=".033924"/>
</g>
    </symbol>

    <d="M16.7672 1H18.2672V2.93103C18.2672 7.31599 21.8219 10.8707 26.2069 10.8707V12.3707C22.8756 12.3707 19.9473 10.6451 18.2672 8.03892V22.2414C18.2672 26.3883 14.9055 29.75 10.7586 29.75C6.61172 29.75 3.25 26.3883 3.25 22.2414C3.25 18.0945 6.61172 14.7328 10.7586 14.7328V16.2328C7.44015 16.2328 4.75 18.9229 4.75 22.2414C4.75 25.5598 7.44015 28.25 10.7586 28.25C14.0771 28.25 16.7672 25.5598 16.7672 22.2414V1Z" fill="white"></path>
  <symbol id="mailiee" viewBox="0 0 137.0981 139.42128">

      <path
         id="path1938"
         style="height:30px;display:inline;fill:#663399;stroke:#ffffff;stroke-width:0;stroke-linecap:butt;stroke-linejoin:miter;stroke-miterlimit:4;stroke-dasharray:none;stroke-opacity:1"
         d="m 177.91797,217.63672 -19.96875,9.4668 19.61914,24.91015 c 21.17157,30.30939 61.6681,80.08409 86.04687,111.56836 28.4608,36.75606 38.51977,50.98008 59.45313,75.08203 2.70144,3.11035 5.41311,6.24759 8.51954,8.95353 3.28302,2.85978 6.86259,5.40098 10.60802,7.62097 3.39743,2.01372 6.91775,3.93225 10.68341,5.12278 2.81803,0.89093 4.02776,0.93232 8.74567,1.45897 8.7914,0.98137 19.98073,-6.11684 23.61719,-12.10351 1.87878,-3.09303 4.14938,-6.81006 4.01174,-12.55408 -0.0905,-3.77753 -1.25043,-6.53246 -3.22597,-8.47116 -1.97554,-1.9387 -4.7667,-3.06116 -8.11973,-3.57376 -4.10568,-0.62767 -6.85204,1.09355 -11.11009,5.70318 -4.419,4.78388 -7.44647,4.8553 -12.46413,3.12099 -5.01766,-1.73431 -11.7012,-8.16559 -19.30667,-15.67049 -7.60546,-7.50485 -15.64311,-17.88084 -41.90039,-51.79882 -11.6503,-15.04935 -31.04151,-40.04456 -51.1875,-65.5293 l 0.16407,0.0781 z"
         transform="scale(0.26458333)" />
     
        <path
           id="path8237"
           d="m 359.38086,232.54883 c -36.43493,51.60077 -82.68753,98.92573 -116.86328,150.53711 -14.6258,19.2692 -42.11667,55.78588 -59.0957,76.71679 -16.97903,20.93091 -24.08473,26.70062 -29.68555,28.41993 -5.29458,1.62531 -7.27827,-0.11314 -10.85938,-2.23047 -3.24208,-2.37835 -3.98858,-4.53948 -7.75781,-6.2168 -3.76922,-1.67728 -7.21922,-1.80465 -10.67187,0.0977 -2.36507,1.30306 -4.96798,4.94985 -5.54102,7.82422 -0.28653,1.4372 -0.79074,5.0955 0.21484,8.49023 1.0056,3.3947 3.52199,6.52576 5.29493,8.33203 1.77293,1.80628 7.01899,5.99919 12.98437,7.62109 9.43945,2.56649 12.61619,1.81875 15.91406,1.03907 3.07991,-0.94103 4.51444,-1.48134 6.6211,-2.22852 2.10666,-0.74717 4.22978,-1.60724 6.71484,-2.90429 4.98843,-2.60372 7.74685,-6.87157 11.46484,-10.56836 7.61681,-8.84962 13.85263,-14.33849 29.45704,-34.07227 15.6044,-19.73378 40.10964,-52.2285 64.61523,-84.72461 v -0.002 L 377.85352,243.40234 c 0,0 2.34679,-2.68748 -6.90375,-8.46925 -9.10569,-5.69124 -11.56891,-2.38426 -11.56891,-2.38426 z"
           transform="scale(0.26458333)" />
      
      <path
         d="m 10.038583,71.425826 c 20.678855,-9.818769 58.067325,-27.590511 60.433089,-28.635617 3.070049,-1.356233 4.515372,-1.373623 5.205209,-1.332408 1.440664,0.08607 1.706055,0.08668 2.785033,0.757293 0.958142,0.718851 1.454434,1.542386 1.914909,2.286787 0.481383,0.7782 0.852079,1.503576 0.934213,2.041315 0.164267,1.075479 -0.369283,2.28027 -0.839073,2.914359 -0.46979,0.63409 -1.475697,1.070927 -2.261957,0.880205 -1.041941,-0.252743 -1.781634,-1.301984 -2.129936,-2.4102 -0.122661,-0.390279 -0.345988,-0.746292 -0.671261,-1.023747 -0.325273,-0.277454 -0.490413,-0.474798 -1.282941,-0.552393 -0.549745,-0.05881 -0.769242,0.01992 -1.026221,0.04052 -0.256979,0.0206 -0.551439,0.07778 -1.099572,0.184223 -0.359615,0.06458 -0.872004,0.250485 -2.362591,0.865734 -1.490586,0.615247 -4.129848,1.811372 -9.084163,4.199468 -9.908629,4.776192 -48.931872,22.709407 -48.931872,22.709407 0,0 -1.9942287,-0.776233 -1.582866,-2.924946 z"
         id="path20018" />
      <path
         d="m 73.368696,69.271557 c -4.135743,0 -7.49788,3.00282 -7.49788,6.724316 0,3.674472 3.362137,6.717595 7.49788,6.724316 4.135742,0 7.498198,-3.049844 7.498198,-6.724316 0,-3.728216 -3.362456,-6.724316 -7.498198,-6.724316 z"
         id="path10030-9" />
    </symbol>

    <symbol id="stik" viewBox="0 0 11.26 8">
   
    <path class="iconic-signal-base" d="M6.337,7.247c-0.391-0.391-1.023-0.391-1.414,0l0.708,0.708L6.337,7.247z"/>
    <g class="iconic-signal-wave">
    
    <path class="iconic-signal-wave-inner" fill="none" stroke="#000000" stroke-miterlimit="10" d="M7.62,5.966c-1.098-1.098-2.88-1.098-3.977,0"/>
    <path class="iconic-signal-wave-middle" fill="none" stroke="#000000" stroke-miterlimit="10" d="M9.31,4.275C7.278,2.244,3.984,2.245,1.952,4.276"/>
    <path class="iconic-signal-wave-outer" fill="none" stroke="#000000" stroke-miterlimit="10" d="M10.9,2.684c-2.911-2.911-7.629-2.911-10.54,0"/>
  </g>
 </symbol>
  
</svg>