<svg xmlns="http://www.w3.org/2000/svg">
    

     <symbol id="check" viewBox="0 0 26 26">
        <title>Icon check</title>
        <path d="m.3,14c-0.2-0.2-0.3-0.5-0.3-0.7s0.1-0.5 0.3-0.7l1.4-1.4c0.4-0.4 1-0.4 1.4,0l.1,.1 5.5,5.9c0.2,0.2 0.5,0.2 0.7,0l13.4-13.9h0.1v-8.88178e-16c0.4-0.4 1-0.4 1.4,0l1.4,1.4c0.4,0.4 0.4,1 0,1.4l0,0-16,16.6c-0.2,0.2-0.4,0.3-0.7,0.3-0.3,0-0.5-0.1-0.7-0.3l-7.8-8.4-.2-.3z"/>
    </symbol>

    <symbol id="delete" viewBox="0 0 408.483 408.483">
        <title>Icon delete</title>
        <g>
	  <path d="M87.748,388.784c0.461,11.01,9.521,19.699,20.539,19.699h191.911c11.018,0,20.078-8.689,20.539-19.699l13.705-289.316 H74.043L87.748,388.784z M247.655,171.329c0-4.61,3.738-8.349,8.35-8.349h13.355c4.609,0,8.35,3.738,8.35,8.349v165.293 c0,4.611-3.738,8.349-8.35,8.349h-13.355c-4.61,0-8.35-3.736-8.35-8.349V171.329z M189.216,171.329 c0-4.61,3.738-8.349,8.349-8.349h13.355c4.609,0,8.349,3.738,8.349,8.349v165.293c0,4.611-3.737,8.349-8.349,8.349h-13.355 c-4.61,0-8.349-3.736-8.349-8.349V171.329L189.216,171.329z M130.775,171.329c0-4.61,3.738-8.349,8.349-8.349h13.356 c4.61,0,8.349,3.738,8.349,8.349v165.293c0,4.611-3.738,8.349-8.349,8.349h-13.356c-4.61,0-8.349-3.736-8.349-8.349V171.329z"/>
          <path d="M343.567,21.043h-88.535V4.305c0-2.377-1.927-4.305-4.305-4.305h-92.971c-2.377,0-4.304,1.928-4.304,4.305v16.737H64.916 c-7.125,0-12.9,5.776-12.9,12.901V74.47h304.451V33.944C356.467,26.819,350.692,21.043,343.567,21.043z"/>
	</g>
    </symbol>

   <symbol id="stiko    " viewBox="0 0 112.06712 15.507579">
        <title>Icon stik</title>
       <g
     id="layer1"
     transform="translate(-80.358517,-193.52571)">
    <path
       style="display:inline;fill:#000000;fill-opacity:1;stroke:#ffffff;stroke-width:0;stroke-linecap:butt;stroke-linejoin:miter;stroke-miterlimit:4;stroke-dasharray:none;stroke-opacity:1"
       d="m 81.113313,194.89577 c 33.851557,-0.49548 95.068577,-1.41673 98.893297,-1.36822 4.96332,0.063 6.91815,0.92806 7.82073,1.40756 1.88496,1.0014 2.24157,1.16537 3.28068,2.73072 0.84692,1.55593 1.00824,2.96879 1.17003,4.25316 0.16914,1.3427 0.22185,2.5463 0.002,3.32012 -0.44017,1.54763 -1.89848,2.84023 -2.9202,3.40437 -1.02173,0.56413 -2.64334,0.53337 -3.58371,-0.20652 -1.24618,-0.98048 -1.59615,-2.84656 -1.3834,-4.55136 0.0749,-0.60038 -0.007,-1.21655 -0.2736,-1.78972 -0.26697,-0.57316 -0.36779,-0.94013 -1.38614,-1.5317 -0.70331,-0.41709 -1.04697,-0.44608 -1.4053,-0.57635 -0.35833,-0.13027 -0.78957,-0.23437 -1.59231,-0.42814 -0.52344,-0.13419 -1.32693,-0.19911 -3.71017,-0.28785 -2.38324,-0.0887 -6.66868,-0.10223 -14.80089,0.0645 -16.26443,0.33341 -79.779689,0.46692 -79.779689,0.46692 0,0 -2.205306,-2.27005 -0.331088,-4.90746 z"
       id="path20018" />
  </g>
    </symbol>

    <d="M16.7672 1H18.2672V2.93103C18.2672 7.31599 21.8219 10.8707 26.2069 10.8707V12.3707C22.8756 12.3707 19.9473 10.6451 18.2672 8.03892V22.2414C18.2672 26.3883 14.9055 29.75 10.7586 29.75C6.61172 29.75 3.25 26.3883 3.25 22.2414C3.25 18.0945 6.61172 14.7328 10.7586 14.7328V16.2328C7.44015 16.2328 4.75 18.9229 4.75 22.2414C4.75 25.5598 7.44015 28.25 10.7586 28.25C14.0771 28.25 16.7672 25.5598 16.7672 22.2414V1Z" fill="white"></path>
  <symbol id="mailiee" viewBox="0 0 137.0981 139.42128">

      <path
         id="path1938"
         style="height:30px;display:inline;fill:#663399;stroke:#ffffff;stroke-width:0;stroke-linecap:butt;stroke-linejoin:miter;stroke-miterlimit:4;stroke-dasharray:none;stroke-opacity:1"
         d="m 177.91797,217.63672 -19.96875,9.4668 19.61914,24.91015 c 21.17157,30.30939 61.6681,80.08409 86.04687,111.56836 28.4608,36.75606 38.51977,50.98008 59.45313,75.08203 2.70144,3.11035 5.41311,6.24759 8.51954,8.95353 3.28302,2.85978 6.86259,5.40098 10.60802,7.62097 3.39743,2.01372 6.91775,3.93225 10.68341,5.12278 2.81803,0.89093 4.02776,0.93232 8.74567,1.45897 8.7914,0.98137 19.98073,-6.11684 23.61719,-12.10351 1.87878,-3.09303 4.14938,-6.81006 4.01174,-12.55408 -0.0905,-3.77753 -1.25043,-6.53246 -3.22597,-8.47116 -1.97554,-1.9387 -4.7667,-3.06116 -8.11973,-3.57376 -4.10568,-0.62767 -6.85204,1.09355 -11.11009,5.70318 -4.419,4.78388 -7.44647,4.8553 -12.46413,3.12099 -5.01766,-1.73431 -11.7012,-8.16559 -19.30667,-15.67049 -7.60546,-7.50485 -15.64311,-17.88084 -41.90039,-51.79882 -11.6503,-15.04935 -31.04151,-40.04456 -51.1875,-65.5293 l 0.16407,0.0781 z"
         transform="scale(0.26458333)" />
     
        <path
           id="path8237"
           d="m 359.38086,232.54883 c -36.43493,51.60077 -82.68753,98.92573 -116.86328,150.53711 -14.6258,19.2692 -42.11667,55.78588 -59.0957,76.71679 -16.97903,20.93091 -24.08473,26.70062 -29.68555,28.41993 -5.29458,1.62531 -7.27827,-0.11314 -10.85938,-2.23047 -3.24208,-2.37835 -3.98858,-4.53948 -7.75781,-6.2168 -3.76922,-1.67728 -7.21922,-1.80465 -10.67187,0.0977 -2.36507,1.30306 -4.96798,4.94985 -5.54102,7.82422 -0.28653,1.4372 -0.79074,5.0955 0.21484,8.49023 1.0056,3.3947 3.52199,6.52576 5.29493,8.33203 1.77293,1.80628 7.01899,5.99919 12.98437,7.62109 9.43945,2.56649 12.61619,1.81875 15.91406,1.03907 3.07991,-0.94103 4.51444,-1.48134 6.6211,-2.22852 2.10666,-0.74717 4.22978,-1.60724 6.71484,-2.90429 4.98843,-2.60372 7.74685,-6.87157 11.46484,-10.56836 7.61681,-8.84962 13.85263,-14.33849 29.45704,-34.07227 15.6044,-19.73378 40.10964,-52.2285 64.61523,-84.72461 v -0.002 L 377.85352,243.40234 c 0,0 2.34679,-2.68748 -6.90375,-8.46925 -9.10569,-5.69124 -11.56891,-2.38426 -11.56891,-2.38426 z"
           transform="scale(0.26458333)" />
      
      <path
         d="m 10.038583,71.425826 c 20.678855,-9.818769 58.067325,-27.590511 60.433089,-28.635617 3.070049,-1.356233 4.515372,-1.373623 5.205209,-1.332408 1.440664,0.08607 1.706055,0.08668 2.785033,0.757293 0.958142,0.718851 1.454434,1.542386 1.914909,2.286787 0.481383,0.7782 0.852079,1.503576 0.934213,2.041315 0.164267,1.075479 -0.369283,2.28027 -0.839073,2.914359 -0.46979,0.63409 -1.475697,1.070927 -2.261957,0.880205 -1.041941,-0.252743 -1.781634,-1.301984 -2.129936,-2.4102 -0.122661,-0.390279 -0.345988,-0.746292 -0.671261,-1.023747 -0.325273,-0.277454 -0.490413,-0.474798 -1.282941,-0.552393 -0.549745,-0.05881 -0.769242,0.01992 -1.026221,0.04052 -0.256979,0.0206 -0.551439,0.07778 -1.099572,0.184223 -0.359615,0.06458 -0.872004,0.250485 -2.362591,0.865734 -1.490586,0.615247 -4.129848,1.811372 -9.084163,4.199468 -9.908629,4.776192 -48.931872,22.709407 -48.931872,22.709407 0,0 -1.9942287,-0.776233 -1.582866,-2.924946 z"
         id="path20018" />
      <path
         d="m 73.368696,69.271557 c -4.135743,0 -7.49788,3.00282 -7.49788,6.724316 0,3.674472 3.362137,6.717595 7.49788,6.724316 4.135742,0 7.498198,-3.049844 7.498198,-6.724316 0,-3.728216 -3.362456,-6.724316 -7.498198,-6.724316 z"
         id="path10030-9" />
    </symbol>

    <symbol id="stik" viewBox="0 0 11.26 8">
   
    <path class="iconic-signal-base" d="M6.337,7.247c-0.391-0.391-1.023-0.391-1.414,0l0.708,0.708L6.337,7.247z"/>
    <g class="iconic-signal-wave">
    
    <path class="iconic-signal-wave-inner" fill="none" stroke="#000000" stroke-miterlimit="10" d="M7.62,5.966c-1.098-1.098-2.88-1.098-3.977,0"/>
    <path class="iconic-signal-wave-middle" fill="none" stroke="#000000" stroke-miterlimit="10" d="M9.31,4.275C7.278,2.244,3.984,2.245,1.952,4.276"/>
    <path class="iconic-signal-wave-outer" fill="none" stroke="#000000" stroke-miterlimit="10" d="M10.9,2.684c-2.911-2.911-7.629-2.911-10.54,0"/>
  </g>
 </symbol>
  
</svg>