<svg xmlns="http://www.w3.org/2000/svg">
    

     <symbol id="separador" viewBox="0 0 161.52829 12.740304" preserveAspectRatio="none">
        <title>Icon check preserveAspectRatio para modificarlo</title>
     <g
     id="layer1"
     transform="translate(-27.059833,-97.373103)">
    <path
       style="color:#000000;fill:#000000;stroke-width:0;stroke-miterlimit:4;stroke-dasharray:none"
       d="M 27.059833,109.39044 C 187.8633,108.24593 186.71879,97.373103 186.71879,97.373103 l 1.71677,12.589597 z"
       id="path1337" />
  </g>
     </symbol>

    <symbol id="separador2" viewBox="0 0 1200 120" preserveAspectRatio="none">
        <path d="M0,0V46.29c47.79,22.2,103.59,32.17,158,28,70.36-5.37,136.33-33.31,206.8-37.5C438.64,32.43,512.34,53.67,583,72.05c69.27,18,138.3,24.88,209.4,13.08,36.15-6,69.85-17.84,104.45-29.34C989.49,25,1113-14.29,1200,52.47V0Z" opacity=".25" class="shape-fill"></path>
        <path d="M0,0V15.81C13,36.92,27.64,56.86,47.69,72.05,99.41,111.27,165,111,224.58,91.58c31.15-10.15,60.09-26.07,89.67-39.8,40.92-19,84.73-46,130.83-49.67,36.26-2.85,70.9,9.42,98.6,31.56,31.77,25.39,62.32,62,103.63,73,40.44,10.79,81.35-6.69,119.13-24.28s75.16-39,116.92-43.05c59.73-5.85,113.28,22.88,168.9,38.84,30.2,8.66,59,6.17,87.09-7.5,22.43-10.89,48-26.93,60.65-49.24V0Z" opacity=".5" class="shape-fill"></path>
        <path d="M0,0V5.63C149.93,59,314.09,71.32,475.83,42.57c43-7.64,84.23-20.12,127.61-26.46,59-8.63,112.48,12.24,165.56,35.4C827.93,77.22,886,95.24,951.2,90c86.53-7,172.46-45.71,248.8-84.81V0Z" class="shape-fill"></path>
    
  </symbol>
    <symbol id="longi" viewBox="0 0 10.458 10.628">
        <title>Icon longi</title>
    <g transform="matrix(.11212 0 0 .11212 -1.1045 -4.6324)" stroke="#fff" stroke-opacity=".058824">
<path transform="scale(.26458)" d="m177.92 217.64-19.969 9.4668 19.619 24.91c21.172 30.309 61.668 80.084 86.047 111.57 28.461 36.756 38.52 50.98 59.453 75.082 2.7014 3.1104 5.4131 6.2476 8.5195 8.9535 3.283 2.8598 6.8626 5.401 10.608 7.621 3.3974 2.0137 6.9178 3.9322 10.683 5.1228 2.818 0.89093 4.0278 0.93232 8.7457 1.459 8.7914 0.98137 19.981-6.1168 23.617-12.104 1.8788-3.093 4.1494-6.8101 4.0117-12.554-0.0905-3.7775-1.2504-6.5325-3.226-8.4712s-4.7667-3.0612-8.1197-3.5738c-4.1057-0.62767-6.852 1.0936-11.11 5.7032-4.419 4.7839-7.4465 4.8553-12.464 3.121s-11.701-8.1656-19.307-15.67c-7.6055-7.5048-15.643-17.881-41.9-51.799-11.65-15.049-31.042-40.045-51.188-65.529l0.16407 0.0781z" stroke-width="1px"/>
<g>
<path transform="scale(.26458)" d="m359.38 232.55c-36.435 51.601-82.688 98.926-116.86 150.54-14.626 19.269-42.117 55.786-59.096 76.717s-24.085 26.701-29.686 28.42c-5.2946 1.6253-7.2783-0.11314-10.859-2.2305-3.2421-2.3784-3.9886-4.5395-7.7578-6.2168-3.7692-1.6773-7.2192-1.8046-10.672 0.0977-2.3651 1.3031-4.968 4.9498-5.541 7.8242-0.28653 1.4372-0.79074 5.0955 0.21484 8.4902 1.0056 3.3947 3.522 6.5258 5.2949 8.332 1.7729 1.8063 7.019 5.9992 12.984 7.6211 9.4394 2.5665 12.616 1.8188 15.914 1.0391 3.0799-0.94103 4.5144-1.4813 6.6211-2.2285 2.1067-0.74717 4.2298-1.6072 6.7148-2.9043 4.9884-2.6037 7.7468-6.8716 11.465-10.568 7.6168-8.8496 13.853-14.338 29.457-34.072 15.604-19.734 40.11-52.228 64.615-84.725v-2e-3l105.67-135.28s2.3468-2.6875-6.9038-8.4692c-9.1057-5.6912-11.569-2.3843-11.569-2.3843z" stroke="#fff" stroke-opacity=".058824" stroke-width="1px"/>
</g>
<path d="m10.039 71.426c20.679-9.8188 58.067-27.591 60.433-28.636 3.07-1.3562 4.5154-1.3736 5.2052-1.3324 1.4407 0.08607 1.7061 0.08668 2.785 0.75729 0.95814 0.71885 1.4544 1.5424 1.9149 2.2868 0.48138 0.7782 0.85208 1.5036 0.93421 2.0413 0.16427 1.0755-0.36928 2.2803-0.83907 2.9144-0.46979 0.63409-1.4757 1.0709-2.262 0.8802-1.0419-0.25274-1.7816-1.302-2.1299-2.4102-0.12266-0.39028-0.34599-0.74629-0.67126-1.0237-0.32527-0.27745-0.49041-0.4748-1.2829-0.55239-0.54974-0.05881-0.76924 0.01992-1.0262 0.04052s-0.55144 0.07778-1.0996 0.18422c-0.35962 0.06458-0.872 0.25048-2.3626 0.86573-1.4906 0.61525-4.1298 1.8114-9.0842 4.1995-9.9086 4.7762-48.932 22.709-48.932 22.709s-1.9942-0.77623-1.5829-2.9249z" stroke-width=".26458px"/>
<path d="m73.369 69.272c-4.1357 0-7.4979 3.0028-7.4979 6.7243 0 3.6745 3.3621 6.7176 7.4979 6.7243 4.1357 0 7.4982-3.0498 7.4982-6.7243 0-3.7282-3.3625-6.7243-7.4982-6.7243z" stroke-miterlimit="10" stroke-width=".033924"/>
</g>
    </symbol>

       <symbol id="longiredondo2" viewBox="0 0 102 101">
        <title>Icon stik</title>
   <g
     id="layer1"
     transform="translate(-51.261334,-101.17483)">
    <g
       id="g1577"
       transform="translate(-56.985221,24.586897)">
      <path
         id="path39859"
         style="fill:#000000;stroke:#000000;stroke-width:0.086239;stroke-miterlimit:4;stroke-dasharray:none"
         d="m 194.46869,126.14001 c -1.23766,-0.0112 -2.43041,0.99768 -2.85703,2.53373 -0.25636,0.92305 -0.17868,2.52293 0.16799,3.45934 0.35219,0.95127 1.19433,1.86463 1.93738,2.10159 0.26167,0.0835 0.65814,0.15805 0.88132,0.16584 0.46864,0.0163 1.45431,-0.42575 1.79961,-0.80731 0.23137,-0.25567 0.24759,-0.25402 0.72898,0.0727 0.56936,0.38637 1.55553,0.44547 2.11321,0.12667 0.19013,-0.1087 0.48897,-0.19996 0.66388,-0.20257 0.4823,-0.007 1.06124,-0.35746 1.23999,-0.74977 0.0879,-0.19296 0.20169,-0.90533 0.25282,-1.58274 0.085,-1.126 0.0636,-1.29541 -0.24823,-1.97654 -0.80596,-1.76047 -2.06151,-2.33017 -3.47688,-1.57761 l -0.64175,0.34113 -0.20149,-0.38974 c -0.28132,-0.54403 -1.06438,-1.19985 -1.67214,-1.40043 -0.22769,-0.0752 -0.45845,-0.11219 -0.68766,-0.11425 z m 0.0665,2.38626 c 0.13964,0.002 0.25963,0.17375 0.41432,0.52344 0.4491,1.01527 0.47886,1.61442 0.11533,2.31577 -0.3635,0.70128 -0.54023,0.80295 -0.85242,0.49076 -0.55895,-0.55896 -0.63457,-2.27005 -0.13018,-2.94563 0.19118,-0.25606 0.32975,-0.38616 0.45295,-0.38434 z m 4.08352,1.18679 c 0.003,-1.4e-4 0.007,0 0.0102,0 0.42553,0 0.66972,1.4073 0.3071,1.76991 -0.26235,0.26236 -0.77659,0.19538 -0.94721,-0.12343 -0.2503,-0.4677 0.19742,-1.62838 0.62985,-1.64648 z" />
      <path
         id="path39893"
         style="fill:#000000;stroke:#000000;stroke-width:0.086239;stroke-miterlimit:4;stroke-dasharray:none"
         d="m 158.97911,81.350337 c -0.48933,0.0072 -1.00979,0.308723 -1.46984,0.891304 -0.4314,0.546316 -1.85424,2.848825 -1.99922,3.235165 -0.057,0.151797 -0.31268,0.245297 -0.79839,0.29197 -0.82066,0.07886 -1.19389,0.371778 -1.32805,1.042556 -0.0785,0.39269 -0.0273,0.509743 0.39731,0.910211 0.46286,0.436542 0.48153,0.489908 0.37596,1.067135 -0.079,0.431911 -0.0561,0.713432 0.0786,0.973952 0.21879,0.423078 0.45415,0.538564 1.09981,0.538564 0.56149,0 0.91602,-0.397645 1.24918,-1.400699 0.12669,-0.381411 0.31874,-0.727234 0.42676,-0.768682 0.108,-0.04143 0.71992,-0.03197 1.3599,0.02134 l 1.16356,0.09696 0.0975,0.779217 c 0.0735,0.588081 0.19166,0.873655 0.48185,1.163826 0.81437,0.814384 1.92683,0.233392 1.92683,-1.006363 0,-1.502236 -1.4018,-6.578996 -2.01921,-7.312748 -0.30026,-0.356839 -0.66197,-0.529294 -1.04256,-0.523709 z m -0.29251,3.397491 0.0862,0.343827 c 0.0475,0.189083 0.12445,0.4428 0.17097,0.563952 0.0855,0.22268 -0.0434,0.252969 -0.53289,0.125053 -0.30401,-0.07945 -0.30181,-0.156956 0.0178,-0.641739 z" />
      <path
         style="fill:#000000;stroke:#000000;stroke-width:0.086239;stroke-miterlimit:4;stroke-dasharray:none"
         d="m 147.03675,90.672393 c -0.80804,-0.391149 -1.21793,-0.799691 -1.51456,-1.509621 -0.31304,-0.749213 -0.27208,-1.305371 0.12541,-1.702859 0.66108,-0.661087 1.29527,-0.418473 2.3354,0.89342 0.21836,0.275405 0.34423,0.311312 0.87979,0.25095 0.37788,-0.0426 0.74034,-0.185816 0.91679,-0.362261 0.29029,-0.290296 0.29039,-0.293171 0.0191,-0.552316 -0.15,-0.143272 -0.80168,-0.429993 -1.44817,-0.637155 -1.57205,-0.503745 -2.16911,-0.904892 -2.51684,-1.690989 -0.34861,-0.788094 -0.29266,-1.940179 0.12138,-2.499148 0.68,-0.918027 2.16221,-1.490497 3.56716,-1.377723 1.02285,0.0821 1.6564,0.386053 1.93742,0.9295 0.30762,0.594866 0.25897,0.944609 -0.19445,1.398038 -0.47162,0.471612 -0.89306,0.510613 -1.84207,0.170471 -0.48696,-0.174532 -0.7542,-0.200576 -1.03716,-0.101067 -0.63451,0.223145 -0.45869,0.51308 0.51771,0.853682 1.82766,0.637568 2.11383,0.76887 2.59345,1.189983 0.59694,0.524119 0.86373,1.12407 0.86373,1.942321 0,0.803737 -0.19236,1.290355 -0.73449,1.8581 -1.12934,1.182687 -3.21378,1.612638 -4.58957,0.946674 z"
         id="path39891" />
      <path
         style="fill:#000000;stroke:#000000;stroke-width:0.086239;stroke-miterlimit:4;stroke-dasharray:none"
         d="m 166.88098,91.944883 c -0.49438,-0.143481 -1.45893,-0.329255 -2.14346,-0.412823 -2.16845,-0.264738 -2.4287,-0.654371 -1.74589,-2.613841 0.96318,-2.764027 2.00267,-5.346309 2.26844,-5.635205 0.37405,-0.406598 1.17401,-0.421238 1.59483,-0.02916 0.52835,0.492226 0.38102,1.239855 -0.89263,4.52983 -0.2737,0.707008 -0.46439,1.318725 -0.42374,1.359367 0.0407,0.04066 0.60451,0.189851 1.25304,0.33157 1.33679,0.292131 1.91271,0.549672 2.22446,0.994759 0.32407,0.462675 0.2618,0.913328 -0.1884,1.363532 -0.46425,0.464254 -0.68848,0.477153 -1.94665,0.111996 z"
         id="path39889" />
      <path
         id="path39885"
         style="fill:#000000;stroke:#000000;stroke-width:0.086239;stroke-miterlimit:4;stroke-dasharray:none"
         d="m 173.54761,85.458981 c -0.18299,4.15e-4 -0.3508,0.01821 -0.49885,0.05537 -0.81882,0.205504 -1.07877,1.427991 -0.42351,1.991659 0.28124,0.241794 0.34755,0.39643 0.28225,0.656595 -0.047,0.18718 -0.64413,1.355898 -1.32723,2.597207 -1.31786,2.394757 -1.44451,2.842034 -0.97422,3.439896 0.345,0.438611 1.77084,1.198387 2.52995,1.348029 1.306,0.257458 2.49407,0.0871 3.77995,-0.541805 3.17146,-1.551125 3.69141,-5.142915 1.09927,-7.594453 -1.16348,-1.100368 -3.18657,-1.955147 -4.46761,-1.952498 z m 1.80747,2.919426 0.61581,0.423505 c 0.76642,0.527312 1.41988,1.524477 1.41988,2.16668 0,0.716526 -0.46288,1.343118 -1.28618,1.740475 -0.93996,0.453654 -1.98021,0.560307 -2.8168,0.288998 -0.10082,-0.0327 0.12108,-0.564585 0.58826,-1.40934 0.41271,-0.746255 0.91434,-1.773875 1.11467,-2.28363 z" />
      <path
         style="fill:#000000;stroke:#000000;stroke-width:0.086239;stroke-miterlimit:4;stroke-dasharray:none"
         d="m 136.0925,95.428358 c -0.3181,-0.19396 -0.61082,-0.629566 -1.09308,-1.62664 l -0.65864,-1.361734 -0.82239,-0.260452 c -0.87062,-0.27573 -2.5817,-1.324913 -3.12201,-1.914328 -0.17737,-0.193484 -0.3552,-0.59566 -0.39517,-0.893718 -0.0646,-0.481747 -0.0238,-0.58308 0.36766,-0.912461 0.68115,-0.573144 1.16767,-0.463777 2.35694,0.529821 0.66843,0.558463 1.64323,1.099537 1.68406,0.934763 0.0145,-0.05859 0.0301,-0.873643 0.0346,-1.811238 l 0.008,-1.70471 0.45343,-0.405798 c 0.65458,-0.585809 1.3295,-0.403693 1.7877,0.482384 0.18364,0.355111 0.20107,0.714053 0.11126,2.291809 -0.0586,1.028914 -0.11087,2.088556 -0.11624,2.354757 -0.006,0.297086 0.22495,0.991362 0.59797,1.797733 0.69569,1.503856 0.76694,2.120522 0.28968,2.506988 -0.40853,0.330807 -0.93381,0.328267 -1.48393,-0.0072 z"
         id="path39883" />
      <path
         style="fill:#000000;stroke:#000000;stroke-width:0.086239;stroke-miterlimit:4;stroke-dasharray:none"
         d="m 128.96613,100.75559 c -0.51683,-0.18458 -1.35291,-0.784268 -1.8296,-1.312306 -0.14489,-0.160494 -0.38108,-0.291812 -0.52486,-0.291812 -0.14378,0 -0.42142,-0.159992 -0.61696,-0.355535 -0.29783,-0.297827 -0.34214,-0.439353 -0.27297,-0.871917 0.11494,-0.71881 -0.18981,-1.143942 -0.74101,-1.033703 -0.538,0.1076 -1.24538,-0.558901 -1.24538,-1.173414 0,-0.692431 2.09031,-3.266184 3.3151,-4.081822 0.78016,-0.519535 1.80154,-0.04657 1.80154,0.834234 0,0.417988 -0.14066,0.633763 -0.97189,1.49102 l -0.97189,1.002311 0.26629,0.328848 0.26629,0.328853 0.69967,-0.654465 c 0.71677,-0.670454 1.05503,-0.775801 1.58491,-0.493585 0.90752,0.483346 0.87464,1.17539 -0.11089,2.334714 -0.41727,0.490846 -0.75953,0.9346 -0.76058,0.986124 -0.003,0.117447 0.68781,0.666904 0.83774,0.666904 0.16844,0 1.04512,-0.956082 1.54802,-1.688224 0.24596,-0.358091 0.6069,-0.718721 0.80208,-0.801401 0.70271,-0.297681 1.51332,0.331231 1.51071,1.172092 -0.003,1.066086 -2.01598,3.343644 -3.22345,3.647694 -0.75929,0.19119 -0.72842,0.19197 -1.36287,-0.0346 z"
         id="path39881" />
      <path
         style="fill:#000000;stroke:#000000;stroke-width:0.086239;stroke-miterlimit:4;stroke-dasharray:none"
         d="m 183.25202,101.71886 c -0.59353,-0.25833 -0.81157,-0.89479 -0.53408,-1.55893 0.1124,-0.268993 0.20435,-0.517554 0.20435,-0.552348 0,-0.03481 -0.39736,-0.0207 -0.88303,0.03131 -1.85487,0.198643 -3.23958,-0.623967 -3.37211,-2.003247 -0.15393,-1.601944 1.32279,-3.900056 3.48168,-5.418275 0.72653,-0.510927 1.07786,-0.671687 1.46794,-0.671687 0.68891,0 1.24155,0.439401 1.24155,0.987139 0,0.614805 -0.15665,0.818685 -1.30449,1.697857 -0.97708,0.748387 -2.42493,2.423639 -2.42794,2.80929 -0.002,0.259892 0.6017,0.355466 1.58218,0.250469 0.95577,-0.102358 2.18835,-0.626221 3.59708,-1.528808 0.99879,-0.639935 1.50926,-0.679412 1.96309,-0.151807 0.54239,0.630564 0.43478,0.90714 -0.92923,2.388355 -0.68919,0.748402 -1.57595,1.840778 -1.97059,2.427492 -0.44173,0.65672 -0.88504,1.1484 -1.1533,1.27916 -0.51211,0.24961 -0.42479,0.24834 -0.9631,0.014 z"
         id="path39879" />
      <path
         style="fill:#000000;stroke:#000000;stroke-width:0.086239;stroke-miterlimit:4;stroke-dasharray:none"
         d="m 186.16894,106.21145 c -0.49473,-0.20063 -2.2517,-1.99533 -2.35454,-2.40509 -0.18922,-0.75391 0.73632,-1.46553 1.54027,-1.18425 0.22509,0.0787 0.50006,-0.0676 1.24459,-0.66239 0.52561,-0.41991 1.43793,-1.07833 2.02739,-1.46317 0.96523,-0.630167 1.07172,-0.74336 1.07172,-1.139239 0,-0.464817 0.29873,-0.829195 0.76058,-0.927722 0.32374,-0.06906 1.03715,0.247919 1.03715,0.46083 0,0.08069 0.37737,0.539688 0.83859,1.020008 0.63653,0.662883 0.84149,0.975383 0.85063,1.296963 0.0241,0.8468 -0.73815,1.28377 -1.5784,0.90487 l -0.52184,-0.23532 -1.10906,0.67046 c -0.60998,0.36875 -1.45407,0.94123 -1.87574,1.27219 -0.64659,0.50749 -0.75047,0.64931 -0.66314,0.90542 0.18283,0.53615 0.0834,0.97947 -0.29208,1.30246 -0.39063,0.336 -0.53445,0.36311 -0.97612,0.18398 z"
         id="path39877" />
      <path
         style="fill:#000000;stroke:#000000;stroke-width:0.086239;stroke-miterlimit:4;stroke-dasharray:none"
         d="m 124.08107,108.05378 c -0.22817,-0.12361 -0.91269,-0.70377 -1.52116,-1.28923 -0.71439,-0.68737 -1.65734,-1.39467 -2.66181,-1.99658 -0.85554,-0.51267 -1.61785,-1.04858 -1.69403,-1.19091 -0.23886,-0.44632 -0.15439,-0.96508 0.21774,-1.33721 0.30308,-0.30308 0.44576,-0.34614 0.95625,-0.2886 0.349,0.0394 0.93688,0.27366 1.40523,0.56012 0.44288,0.27087 0.81957,0.47814 0.83711,0.4606 0.0572,-0.0572 -0.45845,-1.65851 -0.84653,-2.62857 -0.2374,-0.593393 -0.34797,-1.072427 -0.29565,-1.280864 0.23788,-0.947798 1.39345,-1.200326 2.12861,-0.465168 0.46827,0.468273 0.93733,1.735972 1.10204,2.978382 0.12373,0.93327 0.0653,0.91656 1.38231,0.3952 1.59205,-0.63023 2.67048,-0.58001 3.14652,0.14652 0.26565,0.40542 0.18635,0.91911 -0.20178,1.30725 -0.14073,0.14073 -1.04147,0.51768 -2.00165,0.83766 -0.96017,0.31998 -1.74576,0.61457 -1.74576,0.65465 0,0.0401 0.30318,0.40461 0.67374,0.81006 0.83992,0.919 0.95148,1.40509 0.49768,2.1684 -0.20564,0.34588 -0.888,0.42422 -1.37886,0.15829 z"
         id="path39875" />
      <path
         style="fill:#000000;stroke:#000000;stroke-width:0.086239;stroke-miterlimit:4;stroke-dasharray:none"
         d="m 189.43095,112.18412 c -0.70056,-0.72978 -1.49188,-2.17839 -1.61941,-2.96452 -0.19671,-1.21257 0.40399,-2.20664 1.82457,-3.01941 0.40633,-0.23249 0.77446,-0.53507 0.81805,-0.6724 0.0851,-0.26818 0.62481,-0.56825 1.02202,-0.56825 0.134,0 0.36106,0.0859 0.50457,0.1908 0.33866,0.24764 1.03651,0.0295 1.03651,-0.32397 0,-0.35933 0.49675,-0.92899 0.89788,-1.02967 0.55796,-0.14004 1.11564,0.25722 1.87878,1.33835 1.61643,2.28996 2.05177,3.77413 1.28417,4.37793 -0.78864,0.62035 -1.36187,0.28284 -2.13657,-1.25795 -0.52812,-1.05038 -0.57712,-1.10391 -0.92945,-1.01548 -0.20457,0.0513 -0.38917,0.11057 -0.41021,0.13162 -0.0211,0.0211 0.14577,0.42743 0.37071,0.90306 0.33297,0.70407 0.38352,0.93177 0.27199,1.22512 -0.20734,0.54535 -0.38076,0.69942 -0.89609,0.79609 -0.64985,0.12192 -1.01551,-0.15367 -1.65549,-1.24771 -0.292,-0.49917 -0.56466,-0.90736 -0.6059,-0.90707 -0.16711,0.001 -0.97385,0.55713 -0.97385,0.67115 0,0.0674 0.32671,0.60799 0.72601,1.20127 1.25619,1.86644 1.2787,1.94299 0.73229,2.4894 -0.25337,0.25337 -0.48771,0.33943 -0.92428,0.33943 -0.51716,0 -0.65797,-0.0761 -1.2163,-0.65779 z"
         id="path39873" />
      <path
         style="fill:#000000;stroke:#000000;stroke-width:0.086239;stroke-miterlimit:4;stroke-dasharray:none"
         d="m 118.45577,115.70132 c -2.59867,-1.09644 -4.2001,-3.86151 -3.56018,-6.1471 0.23922,-0.85439 1.26351,-1.90835 1.98646,-2.04398 1.17631,-0.22067 2.06653,0.23643 2.04342,1.04925 -0.0165,0.58096 -0.34804,0.92006 -1.10989,1.13524 -0.48824,0.13789 -0.65529,0.26243 -0.75556,0.56323 -0.30744,0.9223 0.38398,2.16292 1.5913,2.8553 1.2587,0.72185 2.679,0.49958 3.08977,-0.48352 0.26955,-0.64515 0.24677,-1.16432 -0.0906,-2.06615 -0.3403,-0.90953 -0.2669,-1.46414 0.24729,-1.86861 0.82567,-0.64947 1.67811,-0.0858 2.13249,1.4102 0.668,2.19924 -0.10719,4.39867 -1.92598,5.46455 -0.91712,0.53747 -2.54716,0.59626 -3.64848,0.13159 z"
         id="path39871" />
      <path
         style="fill:#000000;stroke:#000000;stroke-width:0.086239;stroke-miterlimit:4;stroke-dasharray:none"
         d="m 199.30933,124.71574 c -0.64399,-0.43838 -3.08402,-1.5891 -4.05514,-1.91241 -0.48098,-0.16013 -1.47094,-0.38068 -2.19989,-0.49011 -1.52729,-0.22927 -1.97306,-0.51213 -1.97306,-1.252 0,-0.78697 0.38069,-1.07873 1.48922,-1.14137 1.04795,-0.0592 2.53913,0.29978 4.56445,1.09888 0.5534,0.21835 1.02361,0.39699 1.04491,0.39699 0.0213,0 -0.0202,-0.39452 -0.0923,-0.87671 -0.23628,-1.58101 0.22256,-2.62657 1.15266,-2.62657 0.76713,0 1.10595,0.53454 1.10787,1.74783 0.001,0.70296 0.12284,1.39709 0.41487,2.36568 0.49861,1.65386 0.52141,2.18229 0.11063,2.56499 -0.16645,0.15508 -0.3687,0.28281 -0.44943,0.28385 -0.0807,10e-4 -0.27124,0.0292 -0.42336,0.0626 -0.15212,0.0334 -0.46326,-0.0663 -0.69144,-0.22167 z"
         id="path39869" />
      <path
         id="path39865"
         style="fill:#000000;stroke:#000000;stroke-width:0.086239;stroke-miterlimit:4;stroke-dasharray:none"
         d="m 117.07619,117.05248 c -0.85401,0.009 -1.70115,0.25236 -2.78871,0.77922 -1.01748,0.49291 -1.26402,0.67759 -1.48658,1.11386 -0.60557,1.18701 -0.0759,3.54378 1.1225,4.99401 0.50357,0.60938 1.44763,1.19323 2.33468,1.44391 0.99391,0.28087 2.42052,0.1553 3.44124,-0.30278 3.9021,-1.75115 2.68908,-7.24401 -1.75776,-7.96015 -0.29533,-0.0476 -0.5807,-0.071 -0.86537,-0.0681 z m -0.11776,2.46108 c 0.56139,-0.006 1.14613,0.11873 1.6562,0.37894 1.28829,0.65724 1.49809,2.22848 0.38785,2.90539 -0.55818,0.34033 -1.90815,0.37164 -2.5421,0.0589 -0.69066,-0.34074 -1.26792,-1.03809 -1.46174,-1.76614 -0.17509,-0.65767 -0.17116,-0.67695 0.20176,-0.99772 0.43692,-0.37583 1.08048,-0.57241 1.75803,-0.57935 z" />
      <path
         style="fill:#000000;stroke:#000000;stroke-width:0.086239;stroke-miterlimit:4;stroke-dasharray:none"
         d="m 117.46194,135.46457 -0.43352,-0.47132 -1.24458,0.20193 c -0.68452,0.11106 -1.44504,0.16509 -1.69005,0.12007 -0.52225,-0.096 -0.86826,-0.52582 -0.86826,-1.07868 0,-0.91816 0.53721,-1.25606 2.24916,-1.41468 0.59054,-0.0547 1.10138,-0.14424 1.13519,-0.19895 0.0338,-0.0547 -5.2e-4,-0.52959 -0.0763,-1.05529 -0.24234,-1.68144 -0.0572,-1.51758 -1.70918,-1.513 -1.36995,0.004 -1.47309,-0.0158 -1.79429,-0.34169 -0.48674,-0.49378 -0.55569,-0.95034 -0.22451,-1.48659 l 0.27756,-0.44944 h 1.37637 c 1.33617,0 1.38964,-0.0121 1.83059,-0.41486 0.51589,-0.47119 1.33592,-0.57041 1.64422,-0.19892 0.14929,0.17988 0.38152,0.20011 1.39116,0.12112 1.50103,-0.11742 1.8559,-0.0337 2.13352,0.50314 0.44905,0.86834 -0.19781,1.68677 -1.47006,1.85997 -1.3682,0.18625 -1.27801,0.093 -1.17306,1.21339 0.15163,1.61875 0.013,1.50745 1.74178,1.39806 l 1.5012,-0.095 0.42338,0.42337 c 0.73036,0.73036 0.48029,1.68347 -0.51416,1.95965 -0.28297,0.0786 -0.88787,0.1442 -1.34422,0.14578 -0.93726,0.003 -1.04448,0.0526 -1.28027,0.58915 -0.1702,0.38728 -0.64527,0.65409 -1.16468,0.65409 -0.15592,0 -0.47857,-0.21209 -0.717,-0.47131 z"
         id="path39857" />
      <path
         style="fill:#000000;stroke:#000000;stroke-width:0.086239;stroke-miterlimit:4;stroke-dasharray:none"
         d="m 190.09835,152.12189 c -0.50255,-0.50256 -0.46927,-0.70494 0.39349,-2.3935 0.87643,-1.71529 1.48968,-2.11179 2.29117,-1.48134 0.61705,0.48537 0.59249,0.71602 -0.24655,2.31584 -0.4279,0.8159 -0.90616,1.59236 -1.06279,1.72546 -0.42047,0.35731 -0.9109,0.29795 -1.37532,-0.16646 z"
         id="path39855" />
      <path
         style="fill:#000000;stroke:#000000;stroke-width:0.086239;stroke-miterlimit:4;stroke-dasharray:none"
         d="m 122.84028,153.06828 c -0.84242,-0.73966 -2.14724,-2.4619 -2.14724,-2.83416 0,-0.47316 0.58188,-1.02266 1.08292,-1.02266 0.31716,0 0.5989,0.20074 1.31007,0.93344 1.56539,1.61277 1.76369,1.97789 1.4274,2.62819 -0.18363,0.35512 -0.72276,0.72527 -1.05635,0.72527 -0.0698,0 -0.34739,-0.19354 -0.6168,-0.43008 z"
         id="path39853" />
      <path
         style="fill:#000000;stroke:#000000;stroke-width:0.086239;stroke-miterlimit:4;stroke-dasharray:none"
         d="m 157.51426,121.09229 c -2.82839,-0.66562 -4.88844,-3.65581 -4.04326,-5.86887 0.63528,-1.66347 2.495,-2.42028 4.77313,-1.94242 1.40015,0.2937 2.36008,0.79143 3.08816,1.60122 0.74824,0.83223 0.9866,1.60092 0.8947,2.88531 -0.0793,1.1086 -0.60226,2.20584 -1.30779,2.74396 -0.84683,0.64591 -2.16953,0.87153 -3.40494,0.5808 z"
         id="path39851" />
      <path
         style="fill:#000000;stroke:#000000;stroke-width:0.0845388;stroke-miterlimit:4;stroke-dasharray:none"
         d="m 176.40392,147.86909 c -1.68484,-0.46498 -3.90905,-1.82766 -6.45712,-3.95601 -1.82792,-1.52682 -7.47074,-7.20391 -10.07497,-10.13617 -1.59583,-1.79684 -2.05593,-2.24065 -2.18211,-2.10488 -0.0879,0.0946 -0.7877,0.90536 -1.55504,1.80163 -3.5542,4.15143 -7.53133,8.2462 -10.07245,10.37037 -3.13088,2.61717 -5.74921,3.79421 -7.58802,3.41114 -1.92293,-0.4006 -3.07047,-2.13503 -3.07047,-4.6408 0,-1.93912 0.87786,-3.8246 2.27974,-4.89643 0.75186,-0.57483 1.30625,-0.72995 1.85736,-0.51968 0.47188,0.18004 0.68462,0.67815 0.95013,2.22466 0.33082,1.9269 0.6777,2.18659 2.05286,1.53681 1.9673,-0.92958 5.03755,-3.87783 10.30971,-9.90004 l 2.35108,-2.68556 -1.33374,-1.59209 c -3.21686,-3.83998 -7.01737,-8.79649 -9.0923,-11.85786 l -1.1593,-1.71044 -2.63524,0.99882 c -5.77797,2.18998 -9.76375,3.43994 -10.97048,3.44037 -0.47466,1.4e-4 -0.93441,-0.31724 -0.93441,-0.64514 0,-1.05934 5.34113,-3.99302 14.28678,-7.84716 9.01401,-3.88361 16.74522,-6.58259 22.19077,-7.74683 1.48222,-0.31689 2.08395,-0.37547 3.91647,-0.38124 1.77183,-0.006 2.28634,0.0381 2.83217,0.24047 1.53188,0.56796 2.38365,1.45244 2.6531,2.75496 0.40813,1.97283 -0.8078,4.52374 -2.81781,5.91152 -1.29216,0.89215 -3.15295,1.20596 -3.85673,0.65041 -0.54436,-0.42969 -0.56443,-0.88679 -0.10247,-2.33397 0.22667,-0.71012 0.41214,-1.48201 0.41214,-1.7153 0,-0.84639 -0.99922,-1.09178 -3.14421,-0.77216 -3.15134,0.46957 -6.41333,1.552 -18.3401,6.08581 l -0.71218,0.27072 1.3241,1.37211 c 1.64142,1.70094 4.17821,4.52849 7.59684,8.46759 1.44227,1.66183 2.66005,3.02152 2.70618,3.02152 0.0461,0 0.50946,-0.50415 1.02962,-1.12034 2.67761,-3.17194 5.86669,-6.75605 7.50227,-8.43157 2.56677,-2.62945 3.46954,-3.25047 3.98021,-2.73799 0.12234,0.12277 0.22244,0.35958 0.22244,0.52624 0,1.15177 -3.49847,6.43166 -8.3661,12.62613 l -1.76575,2.24709 2.16948,2.48523 c 7.41828,8.498 11.41602,12.07849 12.94301,11.59213 0.34544,-0.11002 0.5052,-0.53646 0.77879,-2.07881 0.24647,-1.38947 0.51894,-1.86619 1.14558,-2.00431 0.87896,-0.19373 2.42501,1.02471 3.16852,2.49711 0.7995,1.58327 0.95145,3.52494 0.39969,5.10725 -0.3044,0.87293 -1.39094,1.98252 -2.16654,2.21248 -0.7043,0.20882 -1.82558,0.1929 -2.6615,-0.0378 z"
         id="path39849" />
      <path
         id="path39845"
         style="fill:#000000;stroke:#000000;stroke-width:0.086239;stroke-miterlimit:4;stroke-dasharray:none"
         d="m 155.01501,92.397115 c -0.37111,-3.66e-4 -0.74522,0.0047 -1.12251,0.01484 -4.83479,0.131501 -9.10533,1.238595 -13.19751,3.421257 -8.8857,4.739388 -15.00673,13.448058 -16.57205,23.577438 -0.31602,2.04492 -0.4208,6.35269 -0.21068,8.66672 0.92999,10.24192 5.78465,20.17309 12.70621,25.99314 5.31844,4.47204 12.09414,6.99254 19.38265,7.21012 9.78714,0.29217 19.09203,-3.32992 25.11047,-9.77491 5.75079,-6.15838 9.10957,-14.64744 9.41596,-23.79784 0.23983,-7.16274 -1.50522,-13.6445 -5.13823,-19.08471 -1.50673,-2.25622 -2.56244,-3.50642 -4.73229,-5.6055 -2.95958,-2.86304 -5.70448,-4.769845 -9.65174,-6.704233 -5.5106,-2.700508 -10.42359,-3.91088 -15.99028,-3.916336 z m -0.20528,2.370328 c 3.37009,-0.0047 6.84354,0.586493 10.44528,1.773967 6.58636,2.171471 12.55307,6.24182 16.59744,11.32227 3.42015,4.29631 5.46656,9.34529 6.09518,15.03792 0.2491,2.25579 0.11068,7.24105 -0.26037,9.36977 -2.5492,14.62463 -11.88986,24.18445 -25.67064,26.27323 -1.79597,0.27222 -6.23954,0.38378 -8.02066,0.20149 -3.82959,-0.39194 -7.76696,-1.55806 -10.96036,-3.24624 -10.05545,-5.31582 -16.80764,-17.70103 -16.80973,-30.83427 -0.001,-5.26065 0.88994,-9.2228 3.07825,-13.69044 3.45722,-7.05825 9.53117,-12.407736 16.80946,-14.80403 2.82947,-0.931569 5.72255,-1.399538 8.69615,-1.403667 z" />
      <path
         style="fill:#000000;stroke:#000000;stroke-width:0.086239;stroke-miterlimit:4;stroke-dasharray:none"
         d="m 129.50404,161.10104 c -0.33813,-0.21443 -1.12752,-0.65663 -1.7542,-0.98266 -1.79641,-0.93458 -2.3998,-1.81754 -1.88993,-2.76557 0.39407,-0.7327 1.16259,-1.08475 2.90062,-1.32873 0.82255,-0.11546 1.51729,-0.23168 1.54388,-0.25827 0.0266,-0.0266 -0.196,-0.14609 -0.49463,-0.26558 -1.33686,-0.5349 -1.46101,-1.87712 -0.19558,-2.11452 0.65492,-0.12286 1.64071,0.20185 2.95772,0.97427 1.91191,1.12132 2.50867,1.93907 1.95811,2.68322 -0.41815,0.56518 -0.79396,0.6826 -2.73675,0.85514 -0.98876,0.0878 -2.01554,0.20402 -2.28174,0.25826 l -0.48401,0.0986 0.87311,0.46638 c 0.48021,0.25651 0.9936,0.61956 1.14087,0.80678 0.37932,0.48222 0.34744,1.20401 -0.0717,1.62312 -0.43711,0.43711 -0.7119,0.42766 -1.4658,-0.0504 z"
         id="path39843" />
      <path
         id="path39833-38"
         style="fill:#000000;stroke:#000000;stroke-width:0.086239;stroke-miterlimit:4;stroke-dasharray:none"
         d="m 183.52392,153.36631 c -0.29221,0.57004 -0.26855,1.38233 0.0931,3.19573 l 0.30798,1.54492 -0.39854,0.59272 c -0.47547,0.70706 -0.49615,1.08703 -0.0859,1.56971 0.25629,0.30161 0.38001,0.35678 0.82641,0.36959 0.49646,0.0143 0.54391,0.0418 0.87,0.50183 0.28901,0.40773 0.41974,0.4969 0.80839,0.55096 0.53886,0.075 0.85613,-0.10705 1.13524,-0.65153 0.1593,-0.31076 0.13217,-0.57269 -0.13385,-1.29902 l -0.33331,-0.90993 0.85775,-0.67267 0.85763,-0.67303 0.7364,0.47824 c 0.83166,0.53988 1.39522,0.58454 1.74012,0.13838 0.73864,-0.95551 0.095,-1.82547 -2.73336,-3.69477 -2.77321,-1.83287 -3.99832,-2.11342 -4.54798,-1.04113 z m 2.01901,2.28241 c 0.0915,-0.17395 0.33364,-0.1859 0.69746,5.2e-4 0.57871,0.29665 0.57339,0.46439 -0.0307,0.98948 -0.25845,0.22464 -0.38988,0.1679 -0.56637,-0.24451 -0.14806,-0.34596 -0.17605,-0.60138 -0.10037,-0.74558 z" />
      <path
         style="fill:#000000;stroke:#000000;stroke-width:0.086239;stroke-miterlimit:4;stroke-dasharray:none"
         d="m 177.64571,166.24756 c -0.91181,-0.46376 -0.99407,-1.64699 -0.24758,-3.56118 0.27324,-0.70067 0.53431,-1.36605 0.58015,-1.47863 0.0458,-0.11257 -0.18998,-0.004 -0.52405,0.24201 -0.9211,0.67738 -1.67863,0.5677 -1.98254,-0.28705 -0.1461,-0.41096 0.24508,-1.11377 0.96222,-1.72875 0.79483,-0.6816 3.23237,-1.96271 3.73443,-1.96271 0.47015,0 1.15817,0.70076 1.15817,1.17961 0,0.20414 -0.41027,1.33364 -0.91172,2.51001 -0.50144,1.17636 -0.89037,2.15915 -0.86429,2.18397 0.0261,0.0248 0.44763,-0.19758 0.93678,-0.49421 1.01517,-0.61562 1.58881,-0.6818 2.1415,-0.24706 0.31114,0.24475 0.36476,0.38284 0.32979,0.84946 -0.0454,0.60526 0.0454,0.53241 -2.87664,2.30963 -1.06566,0.64815 -1.82005,0.7983 -2.43622,0.4849 z"
         id="path39837" />
      <path
         id="path39833"
         style="fill:#000000;stroke:#000000;stroke-width:0.086239;stroke-miterlimit:4;stroke-dasharray:none"
         d="m 139.38522,158.92913 c -0.64057,0 -1.35262,0.39159 -2.8014,1.54061 l -1.23432,0.97881 -0.70927,-0.0843 c -0.8461,-0.10058 -1.19366,0.0544 -1.43607,0.63958 -0.15148,0.36565 -0.14415,0.50092 0.0481,0.90402 0.21378,0.44829 0.21094,0.50307 -0.0497,1.00312 -0.23101,0.44318 -0.25072,0.60019 -0.12154,0.97071 0.17908,0.51373 0.4858,0.71303 1.09765,0.71303 0.34922,0 0.56993,-0.14362 1.09495,-0.71168 l 0.65768,-0.71169 0.98989,0.45645 0.99015,0.45619 -0.0897,0.87347 c -0.10106,0.98637 0.11629,1.50825 0.67064,1.61165 1.18725,0.22143 1.6678,-0.74821 2.04109,-4.11784 0.36601,-3.30396 0.0568,-4.52215 -1.14816,-4.52215 z m -1.11008,2.83786 c 0.19653,0.002 0.31763,0.21211 0.31763,0.62095 0,0.65031 -0.1517,0.72209 -0.89455,0.42404 -0.3178,-0.12753 -0.32726,-0.27037 -0.0408,-0.61555 0.24033,-0.28957 0.45486,-0.431 0.6177,-0.42944 z" />
      <path
         id="path39829"
         style="fill:#000000;stroke:#000000;stroke-width:0.086239;stroke-miterlimit:4;stroke-dasharray:none"
         d="m 172.08391,161.36516 c -1.26683,0.0193 -3.05085,1.25014 -3.87231,2.82813 -0.30146,0.57908 -0.35914,0.87121 -0.35652,1.79773 0.003,0.91422 0.0718,1.25735 0.39649,1.97736 0.47465,1.05261 1.47116,2.00949 2.40382,2.30793 0.84033,0.2689 1.82078,0.16893 2.73577,-0.27874 1.37973,-0.67503 2.19109,-2.09441 2.17181,-3.79911 -0.0173,-1.52815 -0.40819,-2.43367 -1.55141,-3.5925 -0.50427,-0.51115 -1.0528,-1.00095 -1.21892,-1.08847 -0.20516,-0.10808 -0.4458,-0.15634 -0.70873,-0.15233 z m -0.42675,2.49674 c 0.35494,-0.003 0.70264,0.30466 1.22055,0.98961 0.53986,0.714 0.43034,2.32137 -0.20122,2.95291 -0.50407,0.50407 -1.35406,0.46061 -1.8739,-0.0959 -0.40476,-0.43331 -0.68156,-1.16315 -0.67739,-1.78667 0.004,-0.52019 0.46591,-1.43558 0.89643,-1.77423 0.23512,-0.18494 0.43642,-0.28416 0.63553,-0.28575 z" />
      <path
         id="path39825"
         style="fill:#000000;stroke:#000000;stroke-width:0.086239;stroke-miterlimit:4;stroke-dasharray:none"
         d="m 144.81634,162.25433 c -0.57994,-0.007 -1.03762,0.10066 -1.25809,0.33248 -0.39928,0.41983 -0.45984,0.94168 -0.15423,1.33021 l 0.26631,0.33842 -0.75814,2.26824 c -0.91661,2.74245 -0.94806,3.32694 -0.20635,3.82531 0.25844,0.17366 0.52907,0.31574 0.60149,0.31574 0.31983,0 1.06647,-0.96191 1.22001,-1.57167 0.0894,-0.35517 0.2132,-0.67705 0.27496,-0.7152 0.251,-0.15514 1.23135,1.47803 1.36531,2.27445 0.0644,0.38278 0.17047,0.50533 0.56287,0.6493 0.62291,0.22853 1.09698,0.13162 1.48632,-0.30412 0.40655,-0.45498 0.39581,-1.044 -0.0359,-1.97141 -0.1894,-0.40686 -0.34436,-0.75775 -0.34436,-0.77975 0,-0.022 0.21598,-0.0807 0.47995,-0.13018 0.55998,-0.10506 1.24215,-0.63762 1.53035,-1.1949 0.25333,-0.48994 0.26101,-1.51829 0.0159,-2.10375 -0.24786,-0.59205 -1.20425,-1.43787 -2.07864,-1.83797 -1.01132,-0.46277 -2.12018,-0.71556 -2.96777,-0.7252 z m 1.29266,2.55886 c 0.33993,0.006 1.16181,0.35775 1.44661,0.66091 0.2926,0.31146 0.29486,0.33293 0.0519,0.4578 -0.3041,0.15629 -1.91244,0.33257 -2.02327,0.22175 -0.071,-0.071 0.20762,-1.00924 0.38462,-1.29563 0.0199,-0.0323 0.0696,-0.046 0.14018,-0.0448 z" />
      <path
         id="path39833-3"
         style="fill:#000000;stroke:#000000;stroke-width:0.086239;stroke-miterlimit:4;stroke-dasharray:none"
         d="m 154.83955,164.05374 c -0.59483,0.23771 -1.11072,0.86558 -2.02967,2.47018 l -0.78295,1.36696 -0.6899,0.18495 c -0.82301,0.22058 -1.08826,0.49342 -1.09619,1.12683 -0.005,0.39575 0.052,0.51864 0.38012,0.82161 0.36488,0.33696 0.38257,0.38888 0.3261,0.94994 -0.0501,0.49727 -0.0101,0.65038 0.24735,0.9465 0.35695,0.41061 0.71572,0.48185 1.28388,0.2548 0.32428,-0.1296 0.47594,-0.34487 0.75267,-1.06719 l 0.34662,-0.90494 1.08859,0.0565 1.08873,0.0562 0.24088,0.84438 c 0.27219,0.95343 0.66768,1.3574 1.22082,1.2477 1.18465,-0.23495 1.27106,-1.31368 0.36725,-4.58124 -0.88619,-3.20387 -1.62537,-4.22033 -2.7443,-3.77318 z m 0.0223,3.04718 c 0.18327,-0.071 0.37366,0.0791 0.52537,0.45873 0.24133,0.60388 0.12711,0.72682 -0.67332,0.72572 -0.34243,-5e-4 -0.40422,-0.12961 -0.26627,-0.55646 0.11571,-0.35809 0.26243,-0.56903 0.41423,-0.628 z" />
      <path
         style="fill:#000000;stroke:#000000;stroke-width:0.086239;stroke-miterlimit:4;stroke-dasharray:none"
         d="m 161.42595,172.52168 c -1.37653,-0.6409 -2.05701,-2.11087 -1.9503,-4.21299 0.0756,-1.48904 0.50689,-2.46621 1.49751,-3.39282 0.87552,-0.81895 1.4247,-1.04674 2.51441,-1.04293 1.99406,0.007 3.4231,1.53465 2.39618,2.56156 -0.43515,0.43516 -0.9638,0.433 -1.53973,-0.006 -0.59363,-0.45278 -1.16432,-0.44324 -1.72537,0.0288 -0.94905,0.79858 -1.27694,2.57119 -0.64779,3.50209 0.52655,0.7791 1.54218,0.79127 2.22301,0.0267 0.25201,-0.28304 0.25108,-0.28338 -0.57587,-0.20839 -0.75729,0.0687 -0.85895,0.0445 -1.18586,-0.28246 -0.47481,-0.4748 -0.48418,-1.17099 -0.0216,-1.60556 0.64934,-0.61001 2.99405,-0.63883 3.79304,-0.0466 0.72652,0.5385 0.85627,1.84365 0.29303,2.94768 -0.32076,0.62874 -1.24149,1.46553 -1.98306,1.80226 -0.84455,0.3835 -2.17721,0.35284 -3.0876,-0.071 z"
         id="path39819" />
      <path
         id="path39330"
         style="fill:#000000;stroke:#000000;stroke-width:0.086239;stroke-miterlimit:4;stroke-dasharray:none"
         d="m 153.53567,76.631285 c -2.44731,0.0078 -4.86606,0.212387 -7.25845,0.613919 -19.33227,3.24466 -34.61229,19.200233 -37.46721,39.123136 -1.74452,12.1741 0.95124,25.87886 7.29007,37.06098 1.10959,1.95739 3.40842,5.34333 4.88219,7.19094 1.72014,2.15651 5.05058,5.52609 7.00646,7.08884 7.14324,5.70748 15.84501,8.97938 25.82406,9.71009 1.89067,0.13844 6.33439,0.0638 8.41607,-0.14154 11.20626,-1.10524 21.66542,-5.84009 28.96497,-13.11243 3.58453,-3.57116 6.4444,-7.59629 8.95409,-12.60278 2.70338,-5.39284 4.58513,-11.63133 5.37349,-17.81339 1.08316,-8.49379 0.19757,-16.87775 -2.58856,-24.5025 -0.73013,-1.99811 -2.70018,-5.97699 -3.90284,-7.88238 -6.28727,-9.961162 -16.70797,-17.865791 -28.89932,-21.921494 -5.68803,-1.892239 -11.21092,-2.828483 -16.59502,-2.811391 z m 0.7352,2.392207 c 1.55125,0.01113 3.06196,0.09909 4.45112,0.26577 19.16686,2.299738 36.22385,14.899798 42.09172,31.093288 6.3538,17.53452 1.48277,39.59587 -11.55185,52.31849 -2.13414,2.08305 -3.53161,3.2094 -5.99388,4.83195 -6.12629,4.03702 -13.23415,6.53239 -20.83762,7.31519 -10.86588,1.11866 -21.34597,-1.2137 -29.62509,-6.59295 -10.52205,-6.83658 -18.37293,-19.42329 -21.15064,-33.90955 -2.60996,-13.61138 -0.13565,-26.50701 7.06804,-36.839234 6.61366,-9.485932 16.93208,-16.12611 27.83004,-17.908738 2.43473,-0.398265 5.13271,-0.592777 7.71816,-0.574216 z" />
    </g>
  </g>
    </symbol>


   <symbol id="longiredondo" viewBox="0 0 102 101">
        <title>Icon stik</title>
   <circle cx="50.931" cy="50.358" r="50" fill="#00000f" stroke-width="0" style="paint-order:markers stroke fill"/>
<path d="m50.931 0.35833v100a50 50 0 0 1-50-50 50 50 0 0 1 50-50z" fill="#dc0000" stroke-width="0" style="paint-order:markers stroke fill"/>
<g transform="matrix(.81171 0 0 .81171 -.52491 -25.178)" fill="#fff" stroke="#fff" stroke-opacity=".058824">
<path transform="scale(.26458)" d="m177.92 217.64-19.969 9.4668 19.619 24.91c21.172 30.309 61.668 80.084 86.047 111.57 28.461 36.756 38.52 50.98 59.453 75.082 2.7014 3.1104 5.4131 6.2476 8.5195 8.9535 3.283 2.8598 6.8626 5.401 10.608 7.621 3.3974 2.0137 6.9178 3.9322 10.683 5.1228 2.818 0.89093 4.0278 0.93232 8.7457 1.459 8.7914 0.98137 19.981-6.1168 23.617-12.104 1.8788-3.093 4.1494-6.8101 4.0117-12.554-0.0905-3.7775-1.2504-6.5325-3.226-8.4712s-4.7667-3.0612-8.1197-3.5738c-4.1057-0.62767-6.852 1.0936-11.11 5.7032-4.419 4.7839-7.4465 4.8553-12.464 3.121s-11.701-8.1656-19.307-15.67c-7.6055-7.5048-15.643-17.881-41.9-51.799-11.65-15.049-31.042-40.045-51.188-65.529l0.16407 0.0781z" stroke-width="1px"/>
<g>
<path transform="scale(.26458)" d="m359.38 232.55c-36.435 51.601-82.688 98.926-116.86 150.54-14.626 19.269-42.117 55.786-59.096 76.717s-24.085 26.701-29.686 28.42c-5.2946 1.6253-7.2783-0.11314-10.859-2.2305-3.2421-2.3784-3.9886-4.5395-7.7578-6.2168-3.7692-1.6773-7.2192-1.8046-10.672 0.0977-2.3651 1.3031-4.968 4.9498-5.541 7.8242-0.28653 1.4372-0.79074 5.0955 0.21484 8.4902 1.0056 3.3947 3.522 6.5258 5.2949 8.332 1.7729 1.8063 7.019 5.9992 12.984 7.6211 9.4394 2.5665 12.616 1.8188 15.914 1.0391 3.0799-0.94103 4.5144-1.4813 6.6211-2.2285 2.1067-0.74717 4.2298-1.6072 6.7148-2.9043 4.9884-2.6037 7.7468-6.8716 11.465-10.568 7.6168-8.8496 13.853-14.338 29.457-34.072 15.604-19.734 40.11-52.228 64.615-84.725v-2e-3l105.67-135.28s2.3468-2.6875-6.9038-8.4692c-9.1057-5.6912-11.569-2.3843-11.569-2.3843z" fill="#fff" stroke="#fff" stroke-opacity=".058824" stroke-width="1px"/>
</g>
<path d="m10.039 71.426c20.679-9.8188 58.067-27.591 60.433-28.636 3.07-1.3562 4.5154-1.3736 5.2052-1.3324 1.4407 0.08607 1.7061 0.08668 2.785 0.75729 0.95814 0.71885 1.4544 1.5424 1.9149 2.2868 0.48138 0.7782 0.85208 1.5036 0.93421 2.0413 0.16427 1.0755-0.36928 2.2803-0.83907 2.9144-0.46979 0.63409-1.4757 1.0709-2.262 0.8802-1.0419-0.25274-1.7816-1.302-2.1299-2.4102-0.12266-0.39028-0.34599-0.74629-0.67126-1.0237-0.32527-0.27745-0.49041-0.4748-1.2829-0.55239-0.54974-0.05881-0.76924 0.01992-1.0262 0.04052s-0.55144 0.07778-1.0996 0.18422c-0.35962 0.06458-0.872 0.25048-2.3626 0.86573-1.4906 0.61525-4.1298 1.8114-9.0842 4.1995-9.9086 4.7762-48.932 22.709-48.932 22.709s-1.9942-0.77623-1.5829-2.9249z" stroke-width=".26458px"/>
<path d="m73.369 69.272c-4.1357 0-7.4979 3.0028-7.4979 6.7243 0 3.6745 3.3621 6.7176 7.4979 6.7243 4.1357 0 7.4982-3.0498 7.4982-6.7243 0-3.7282-3.3625-6.7243-7.4982-6.7243z" stroke-miterlimit="10" stroke-width=".033924"/>
</g>
    </symbol>

    <d="M16.7672 1H18.2672V2.93103C18.2672 7.31599 21.8219 10.8707 26.2069 10.8707V12.3707C22.8756 12.3707 19.9473 10.6451 18.2672 8.03892V22.2414C18.2672 26.3883 14.9055 29.75 10.7586 29.75C6.61172 29.75 3.25 26.3883 3.25 22.2414C3.25 18.0945 6.61172 14.7328 10.7586 14.7328V16.2328C7.44015 16.2328 4.75 18.9229 4.75 22.2414C4.75 25.5598 7.44015 28.25 10.7586 28.25C14.0771 28.25 16.7672 25.5598 16.7672 22.2414V1Z" fill="white"></path>
  <symbol id="mailiee" viewBox="0 0 137.0981 139.42128">

      <path
         id="path1938"
         style="height:30px;display:inline;fill:#663399;stroke:#ffffff;stroke-width:0;stroke-linecap:butt;stroke-linejoin:miter;stroke-miterlimit:4;stroke-dasharray:none;stroke-opacity:1"
         d="m 177.91797,217.63672 -19.96875,9.4668 19.61914,24.91015 c 21.17157,30.30939 61.6681,80.08409 86.04687,111.56836 28.4608,36.75606 38.51977,50.98008 59.45313,75.08203 2.70144,3.11035 5.41311,6.24759 8.51954,8.95353 3.28302,2.85978 6.86259,5.40098 10.60802,7.62097 3.39743,2.01372 6.91775,3.93225 10.68341,5.12278 2.81803,0.89093 4.02776,0.93232 8.74567,1.45897 8.7914,0.98137 19.98073,-6.11684 23.61719,-12.10351 1.87878,-3.09303 4.14938,-6.81006 4.01174,-12.55408 -0.0905,-3.77753 -1.25043,-6.53246 -3.22597,-8.47116 -1.97554,-1.9387 -4.7667,-3.06116 -8.11973,-3.57376 -4.10568,-0.62767 -6.85204,1.09355 -11.11009,5.70318 -4.419,4.78388 -7.44647,4.8553 -12.46413,3.12099 -5.01766,-1.73431 -11.7012,-8.16559 -19.30667,-15.67049 -7.60546,-7.50485 -15.64311,-17.88084 -41.90039,-51.79882 -11.6503,-15.04935 -31.04151,-40.04456 -51.1875,-65.5293 l 0.16407,0.0781 z"
         transform="scale(0.26458333)" />
     
        <path
           id="path8237"
           d="m 359.38086,232.54883 c -36.43493,51.60077 -82.68753,98.92573 -116.86328,150.53711 -14.6258,19.2692 -42.11667,55.78588 -59.0957,76.71679 -16.97903,20.93091 -24.08473,26.70062 -29.68555,28.41993 -5.29458,1.62531 -7.27827,-0.11314 -10.85938,-2.23047 -3.24208,-2.37835 -3.98858,-4.53948 -7.75781,-6.2168 -3.76922,-1.67728 -7.21922,-1.80465 -10.67187,0.0977 -2.36507,1.30306 -4.96798,4.94985 -5.54102,7.82422 -0.28653,1.4372 -0.79074,5.0955 0.21484,8.49023 1.0056,3.3947 3.52199,6.52576 5.29493,8.33203 1.77293,1.80628 7.01899,5.99919 12.98437,7.62109 9.43945,2.56649 12.61619,1.81875 15.91406,1.03907 3.07991,-0.94103 4.51444,-1.48134 6.6211,-2.22852 2.10666,-0.74717 4.22978,-1.60724 6.71484,-2.90429 4.98843,-2.60372 7.74685,-6.87157 11.46484,-10.56836 7.61681,-8.84962 13.85263,-14.33849 29.45704,-34.07227 15.6044,-19.73378 40.10964,-52.2285 64.61523,-84.72461 v -0.002 L 377.85352,243.40234 c 0,0 2.34679,-2.68748 -6.90375,-8.46925 -9.10569,-5.69124 -11.56891,-2.38426 -11.56891,-2.38426 z"
           transform="scale(0.26458333)" />
      
      <path
         d="m 10.038583,71.425826 c 20.678855,-9.818769 58.067325,-27.590511 60.433089,-28.635617 3.070049,-1.356233 4.515372,-1.373623 5.205209,-1.332408 1.440664,0.08607 1.706055,0.08668 2.785033,0.757293 0.958142,0.718851 1.454434,1.542386 1.914909,2.286787 0.481383,0.7782 0.852079,1.503576 0.934213,2.041315 0.164267,1.075479 -0.369283,2.28027 -0.839073,2.914359 -0.46979,0.63409 -1.475697,1.070927 -2.261957,0.880205 -1.041941,-0.252743 -1.781634,-1.301984 -2.129936,-2.4102 -0.122661,-0.390279 -0.345988,-0.746292 -0.671261,-1.023747 -0.325273,-0.277454 -0.490413,-0.474798 -1.282941,-0.552393 -0.549745,-0.05881 -0.769242,0.01992 -1.026221,0.04052 -0.256979,0.0206 -0.551439,0.07778 -1.099572,0.184223 -0.359615,0.06458 -0.872004,0.250485 -2.362591,0.865734 -1.490586,0.615247 -4.129848,1.811372 -9.084163,4.199468 -9.908629,4.776192 -48.931872,22.709407 -48.931872,22.709407 0,0 -1.9942287,-0.776233 -1.582866,-2.924946 z"
         id="path20018" />
      <path
         d="m 73.368696,69.271557 c -4.135743,0 -7.49788,3.00282 -7.49788,6.724316 0,3.674472 3.362137,6.717595 7.49788,6.724316 4.135742,0 7.498198,-3.049844 7.498198,-6.724316 0,-3.728216 -3.362456,-6.724316 -7.498198,-6.724316 z"
         id="path10030-9" />
    </symbol>

    <symbol id="stik" viewBox="0 0 11.26 8">
   
    <path class="iconic-signal-base" d="M6.337,7.247c-0.391-0.391-1.023-0.391-1.414,0l0.708,0.708L6.337,7.247z"/>
    <g class="iconic-signal-wave">
    
    <path class="iconic-signal-wave-inner" fill="none" stroke="#000000" stroke-miterlimit="10" d="M7.62,5.966c-1.098-1.098-2.88-1.098-3.977,0"/>
    <path class="iconic-signal-wave-middle" fill="none" stroke="#000000" stroke-miterlimit="10" d="M9.31,4.275C7.278,2.244,3.984,2.245,1.952,4.276"/>
    <path class="iconic-signal-wave-outer" fill="none" stroke="#000000" stroke-miterlimit="10" d="M10.9,2.684c-2.911-2.911-7.629-2.911-10.54,0"/>
  </g>
 </symbol>
  

  
</svg>