<?xml version="1.0" encoding="UTF-8" standalone="no"?>
<!-- Created with Inkscape (http://www.inkscape.org/) -->

<svg
   width="29.999987"
   height="30.598351"
   viewBox="0 0 7.9374968 8.0958136"
   version="1.1"
   id="svg5"
   sodipodi:docname="longisol.svg"
   inkscape:version="1.1.2 (b8e25be833, 2022-02-05)"
   xmlns:inkscape="http://www.inkscape.org/namespaces/inkscape"
   xmlns:sodipodi="http://sodipodi.sourceforge.net/DTD/sodipodi-0.dtd"
   xmlns="http://www.w3.org/2000/svg"
   xmlns:svg="http://www.w3.org/2000/svg">
  <sodipodi:namedview
     id="namedview13"
     pagecolor="#ffffff"
     bordercolor="#666666"
     borderopacity="1.0"
     inkscape:pageshadow="2"
     inkscape:pageopacity="0.0"
     inkscape:pagecheckerboard="0"
     showgrid="false"
     fit-margin-top="0"
     fit-margin-left="0"
     fit-margin-right="0"
     fit-margin-bottom="0"
     showborder="false"
     inkscape:zoom="2.3419128"
     inkscape:cx="64.690709"
     inkscape:cy="106.75035"
     inkscape:window-width="1360"
     inkscape:window-height="705"
     inkscape:window-x="-8"
     inkscape:window-y="-8"
     inkscape:window-maximized="1"
     inkscape:current-layer="svg5" />
  <defs
     id="defs2" />
  <path
     id="path33256"
     style="fill:#000000;stroke:#ffffff;stroke-width:0.00288485;stroke-miterlimit:10;stroke-opacity:1"
     class="st0"
     d="m 5.4976262,0.00151622 c -0.07506,0.001 -0.143122,0.01327 -0.211183,0.04011 -0.168688,0.07026 -0.33737,0.139972 -0.501497,0.218234 -0.674746,0.312474 -1.369032,0.624953 -2.025542,0.97455998 -0.09379,0.03656 -0.290479,0.139388 -0.309365,0.151955 -0.02345,0.004 -2.41046104,1.147076 -2.43846704,1.159642 -0.06057,0.168521 0.169338,0.287894 0.186924,0.287322 0.04689,-0.02456 2.40133804,-1.155625 2.45735004,-1.180189 0.02293,-0.0094 0.04518,-0.01995 0.06738,-0.03085 0.115766,0.147034 0.455341,0.579403 0.779186,0.990493 0.349844,0.444092 0.68133,0.86335 0.692466,0.871219 0.01433,0.02856 0.01432,0.03313 0.02799,0.04512 0.0749,0.09883 0.149808,0.209668 0.239036,0.304496 0.183308,0.259172 0.375017,0.51635 0.57074,0.771865 -0.03472,0.04556 -0.07121,0.09214 -0.11612,0.137565 0,0.0497 -0.04691,0.05369 -0.07036,0.09882 l -1.805389,2.340417 c -0.136121,0.114823 -0.267701,0.275353 -0.483282,0.312484 -0.06578,0 -0.136119,-0.03714 -0.192131,-0.07827 -0.102905,-0.111394 -0.234469,-0.209646 -0.407715,-0.119388 -0.05601,0.03713 -0.09377,0.09883 -0.121774,0.160529 -0.03257,0.123391 -0.01434,0.238794 0.07033,0.3496178 0.108117,0.090258 0.234472,0.1890782 0.394041,0.2507738 0.0749,0.032561 0.155015,0.049115 0.25792,0.024552 0.253356,-0.057696 0.412915,-0.1273723 0.539266,-0.2633304 0.149799,-0.1685212 0.304804,-0.3496062 0.445485,-0.5306932 0.591379,-0.736345 1.205569,-1.489279 1.749406,-2.258187 0.01256,-0.01391 0.02477,-0.02809 0.03679,-0.04241 0.292151,0.371922 0.589937,0.739922 0.882195,1.10382 0.14524,0.17709 0.300226,0.357604 0.450026,0.530694 0.12635,0.135958 0.285936,0.205633 0.539292,0.26333 0.102906,0.02057 0.183012,0.008 0.253353,-0.02455 0.164128,-0.06569 0.290463,-0.160515 0.398579,-0.250773 0.08467,-0.110824 0.09836,-0.226228 0.07036,-0.349618 -0.02801,-0.06569 -0.06579,-0.123398 -0.121803,-0.16053 -0.173246,-0.09026 -0.30481,0.004 -0.407715,0.119389 -0.05601,0.04113 -0.12635,0.07827 -0.192131,0.07827 -0.21558,-0.03713 -0.347132,-0.197663 -0.483253,-0.312484 l -1.084187,-1.399547 c 0.364484,-0.455982 2.014754,-2.577247 2.035735,-2.599228 -0.04233,-0.234215 -0.394053,-0.250767 -0.413592,-0.242198 -0.03352,0.04849 -1.556478,2.006292 -1.913153,2.465791 l -0.434762,-0.56123 c -0.02345,-0.04513 -0.0749,-0.05372 -0.0749,-0.09884 -0.08467,-0.09026 -0.140685,-0.189076 -0.215584,-0.267338 -0.04233,-0.05569 -1.172498,-1.524116 -1.443578,-1.875392 l 1.905997,-0.92203698 c 0.136121,-0.03713 0.285916,-0.102816 0.445485,-0.06169 0.04233,0.02057 0.07489,0.06569 0.09378,0.110814 0.03322,0.106824 0.0801,0.209652 0.229901,0.205651 0.05601,-0.008 0.09836,-0.03657 0.145254,-0.0697 0.06578,-0.07369 0.099,-0.155953 0.08467,-0.254779 -0.03712,-0.09426 -0.08925,-0.197063 -0.168708,-0.291889 -0.03777,-0.04113 -0.08464,-0.07827 -0.159542,-0.09484 -0.09607,-0.01828 -0.178152,-0.0285599999 -0.253214,-0.02756 z M 5.3952092,2.4146122 c -0.351701,0 -0.637615,0.25536 -0.637615,0.571834 0,0.312474 0.285914,0.571261 0.637615,0.571833 0.351703,0 0.637645,-0.259359 0.637645,-0.571833 0,-0.317047 -0.285942,-0.571834 -0.637645,-0.571834 z"
     sodipodi:nodetypes="cccccccccscccccccccccccccccccccccccccccccccccccccccccccsscss" />
</svg>
